<?xml version="1.0" encoding="utf-8"?>
<!-- Generator: Adobe Illustrator 17.0.1, SVG Export Plug-In . SVG Version: 6.00 Build 0)  -->
<!DOCTYPE svg PUBLIC "-//W3C//DTD SVG 1.1//EN" "http://www.w3.org/Graphics/SVG/1.1/DTD/svg11.dtd">
<svg version="1.1" id="Layer_1" xmlns="http://www.w3.org/2000/svg" xmlns:xlink="http://www.w3.org/1999/xlink" x="0px" y="0px"
	 width="10px" height="81px" viewBox="0 0 10 81" enable-background="new 0 0 10 81" xml:space="preserve">
<g>
	<g>
		<path fill="#634033" d="M9.5,3.5c0-1.657-1.343-3-3-3h-4c-1.657,0-3,1.343-3,3v75c0,1.657,1.343,3,3,3h4c1.657,0,3-1.343,3-3V3.5z
			"/>
	</g>
	<g>
		<path fill="#634033" d="M-0.5,2464c0,1.65,0,4.35,0,6v23c0,1.65,0,4.35,0,6v46c0,1.65,1.85,3.5,3.5,3.5h4c1.65,0,2.5-1.85,2.5-3.5
			v-46c0-1.65,0-4.35,0-6v-23c0-1.65,0-4.35,0-6v-46c0-1.65-0.85-2.5-2.5-2.5H3c-1.65,0-3.5,0.85-3.5,2.5V2464z"/>
	</g>
	<g>
		<path fill="#634033" d="M13,481.5c-1.65,0-3.5-1.85-3.5-3.5v-65c0-1.65-0.85-2.5-2.5-2.5H3c-1.65,0-3.5,0.85-3.5,2.5v65
			c0,1.65,0,4.35,0,6v4c0,1.65,0,3.45,0,4s1.85,1.5,3.5,1.5h793c1.65,0,2.5,0.85,2.5,2.5v66c0,1.65,1.85,3.5,3.5,3.5h4
			c1.65,0,2.5-1.85,2.5-3.5v-66c0-1.65,0-4.35,0-6v-3c0-1.65,0-3.675,0-4.5s-0.85-1-2.5-1H13z"/>
	</g>
	<g>
		<path fill="#634033" d="M9.5,1387c0-1.65-0.85-2.5-2.5-2.5H3c-1.65,0-3.5,0.85-3.5,2.5v65c0,1.65,0,4.35,0,6v4c0,1.65,0,3.45,0,4
			s1.85,1.5,3.5,1.5h793c1.65,0,2.5,0.85,2.5,2.5v66c0,1.65,1.85,3.5,3.5,3.5h4c1.65,0,2.5-1.85,2.5-3.5v-66c0-1.65,0-4.35,0-6v-3
			c0-1.65,0-3.675,0-4.5s-0.85-1-2.5-1H13c-1.65,0-3.5-1.85-3.5-3.5V1387z"/>
	</g>
	<g>
		<path fill="#634033" d="M798.5,935c0,1.65-0.85,3.5-2.5,3.5H3c-1.65,0-3.5,0.175-3.5,1s0,2.85,0,4.5v3c0,1.65,0,4.35,0,6v66
			c0,1.65,1.85,3.5,3.5,3.5h4c1.65,0,2.5-1.85,2.5-3.5v-66c0-1.65,1.85-2.5,3.5-2.5h793c1.65,0,2.5-0.95,2.5-1.5s0-2.35,0-4v-4
			c0-1.65,0-4.35,0-6v-65c0-1.65-0.85-2.5-2.5-2.5h-4c-1.65,0-3.5,0.85-3.5,2.5V935z"/>
	</g>
	<g>
		<path fill="#634033" d="M798.5,1941c0,1.65-0.85,3.5-2.5,3.5H3c-1.65,0-3.5,0.175-3.5,1s0,2.85,0,4.5v3c0,1.65,0,4.35,0,6v66
			c0,1.65,1.85,3.5,3.5,3.5h4c1.65,0,2.5-1.85,2.5-3.5v-66c0-1.65,1.85-2.5,3.5-2.5h793c1.65,0,2.5-0.95,2.5-1.5s0-2.35,0-4v-4
			c0-1.65,0-4.35,0-6v-65c0-1.65-0.85-2.5-2.5-2.5h-4c-1.65,0-3.5,0.85-3.5,2.5V1941z"/>
	</g>
</g>
</svg>
