<?xml version="1.0" encoding="utf-8"?>
<!-- Generator: Adobe Illustrator 17.0.1, SVG Export Plug-In . SVG Version: 6.00 Build 0)  -->
<!DOCTYPE svg PUBLIC "-//W3C//DTD SVG 1.1//EN" "http://www.w3.org/Graphics/SVG/1.1/DTD/svg11.dtd">
<svg version="1.1" id="Layer_1" xmlns="http://www.w3.org/2000/svg" xmlns:xlink="http://www.w3.org/1999/xlink" x="0px" y="0px"
	 width="184.395px" height="176.393px" viewBox="0 0 184.395 176.393" enable-background="new 0 0 184.395 176.393"
	 xml:space="preserve">
<g>
	<path fill="#FFFFFF" d="M176.618,46.724v117.91H8.199V46.724c0-20.126,18.946-38.018,42.017-38.018
		c23.077,0,42.019,15.337,42.019,36.428c0-21.091,19.282-36.428,42.362-36.428C157.673,8.706,176.618,26.599,176.618,46.724"/>
	<path fill="#F2B457" d="M9.65,0h165.098c5.306,0,9.647,4.401,9.647,9.793v156.814c0,5.385-4.34,9.786-9.647,9.786H9.65
		c-5.303,0-9.65-4.401-9.65-9.786V9.793C0,4.401,4.347,0,9.65,0 M172.417,48.785c0-19.242-18.047-36.351-40.03-36.351
		c-21.98,0-40.352,14.665-40.352,34.831c0-20.166-18.047-34.831-40.025-34.831c-21.984,0-40.03,17.108-40.03,36.351v112.733h160.438
		L172.417,48.785"/>
</g>
</svg>
