<?xml version="1.0" encoding="utf-8"?>
<!-- Generator: Adobe Illustrator 17.0.1, SVG Export Plug-In . SVG Version: 6.00 Build 0)  -->
<!DOCTYPE svg PUBLIC "-//W3C//DTD SVG 1.1//EN" "http://www.w3.org/Graphics/SVG/1.1/DTD/svg11.dtd">
<svg version="1.1" id="Layer_1" xmlns="http://www.w3.org/2000/svg" xmlns:xlink="http://www.w3.org/1999/xlink" x="0px" y="0px"
	 width="184.395px" height="176.393px" viewBox="0 0 184.395 176.393" enable-background="new 0 0 184.395 176.393"
	 xml:space="preserve">
<g>
	<path fill-rule="evenodd" clip-rule="evenodd" fill="#FFFFFF" d="M176.618,46.724v117.91H8.199V46.724
		c0-20.126,18.946-38.018,42.017-38.018c23.077,0,42.019,15.337,42.019,36.428c0-21.091,19.282-36.428,42.362-36.428
		C157.673,8.706,176.618,26.599,176.618,46.724"/>
	<path fill-rule="evenodd" clip-rule="evenodd" fill="#F2B457" d="M9.65,0h165.098c5.306,0,9.647,4.401,9.647,9.793v156.814
		c0,5.385-4.34,9.786-9.647,9.786H9.65c-5.303,0-9.65-4.401-9.65-9.786V9.793C0,4.401,4.347,0,9.65,0 M172.417,48.785
		c0-19.242-18.047-36.351-40.03-36.351c-21.98,0-40.352,14.665-40.352,34.831c0-20.166-18.047-34.831-40.025-34.831
		c-21.984,0-40.03,17.108-40.03,36.351v112.733h160.438V48.785"/>
	<g>
		<g>
			<path fill="#634033" d="M35.762,111.358c-0.379-0.097-0.652-0.461-0.652-0.886V76.191H23.541v48.785h56.195v-2.847
				C73.495,120.629,36.555,111.541,35.762,111.358z"/>
			<path fill="#634033" d="M81.388,114.349L48.764,95.075c-0.26-0.163-0.431-0.464-0.431-0.795V64.149
				c-3.801-0.932-7.65-1.876-11.571-2.802c0,3.783,0,44.849,0,48.394c8.053,1.909,45.725,11.198,46.277,11.332v-5.744
				L81.388,114.349z"/>
			<path fill="#634033" d="M63.414,78.68c-0.133-0.166-0.206-0.38-0.206-0.598V54.954l-13.224-7.817c0,4.472,0,44.7,0,46.603
				L88,116.203c0-2.247,0-4.502,0-6.751L63.414,78.68z"/>
			<polygon fill="#634033" points="64.865,33.431 64.865,77.742 91.306,110.843 91.306,66.522 			"/>
		</g>
		<g>
			<path fill="#634033" d="M148.429,111.358c0.379-0.097,0.649-0.461,0.649-0.886V76.191h11.572v48.785h-56.195v-2.847
				C110.697,120.629,147.635,111.541,148.429,111.358z"/>
			<path fill="#634033" d="M102.804,114.349l32.627-19.273c0.265-0.163,0.428-0.464,0.428-0.795V64.149
				c3.795-0.932,7.65-1.876,11.569-2.802c0,3.783,0,44.849,0,48.394c-8.051,1.909-45.723,11.198-46.272,11.332v-5.744
				L102.804,114.349z"/>
			<path fill="#634033" d="M120.784,78.68c0.125-0.166,0.197-0.38,0.197-0.598V54.954l13.226-7.817c0,4.472,0,44.7,0,46.603
				l-38.015,22.464c0-2.247,0-4.502,0-6.751L120.784,78.68z"/>
			<polygon fill="#634033" points="119.327,33.431 119.327,77.742 92.89,110.843 92.89,66.522 			"/>
		</g>
	</g>
	<path fill-rule="evenodd" clip-rule="evenodd" fill="#634033" d="M160.702,132.462c0,0.498,0,1.005,0,1.515
		c0,0.513,0.015,1.035,0.046,1.554c0,1.579-0.152,2.893-0.444,3.959c-0.291,1.063-0.917,2.034-1.863,2.905
		c-1.303,1.451-3.051,3.048-5.243,4.802c-2.195,1.742-4.259,3.409-6.217,4.984l-3.643,2.732c-0.349,0.056-0.601-0.072-0.747-0.373
		c0-0.318,0.073-0.867,0.219-1.617c0.155-0.756,0.219-1.266,0.219-1.54c0.033-0.179,0.048-0.445,0.048-0.795
		c0-0.3-0.015-0.637-0.048-1.02c-0.025-0.373-0.04-0.598-0.04-0.676c0.033-0.276,0.04-0.486,0.04-0.635
		c0.242-0.331,0.707-0.592,1.401-0.793c0.696-0.202,1.133-0.355,1.312-0.452c0.944-0.373,1.739-0.714,2.37-0.998
		c0.641-0.288,1.075-0.717,1.318-1.299c0-1.126-0.176-2.234-0.535-3.314c-0.36-1.081-0.856-2.177-1.518-3.309
		c-0.497-0.598-1.153-1.005-1.975-1.206c-0.811-0.202-1.742-0.301-2.811-0.301c-0.176-0.252-0.301-0.646-0.355-1.183
		c-0.067-0.547-0.136-0.899-0.225-1.08c-0.024-0.197-0.261-0.825-0.713-1.883c-0.438-1.074-0.665-1.817-0.665-2.264
		c0.097-0.049,0.261-0.079,0.491-0.079c0.267,0,0.44,0.016,0.534,0.04c0.408,0.361,0.778,0.671,1.087,0.923
		c0.31,0.257,0.699,0.41,1.175,0.446c0.477,0.039,0.832,0.054,1.066,0.054c0.474,0,0.957-0.015,1.442-0.048
		c0.489-0.031,0.987-0.067,1.49-0.098c0.442,0,0.777,0.009,1.02,0.033c0.237,0.179,0.358,0.404,0.358,0.679
		c0,0.122-0.043,0.301-0.133,0.55c-0.088,0.234-0.195,0.505-0.316,0.807c-0.031,0.173-0.04,0.368-0.04,0.577c0,0.212,0,0.38,0,0.504
		c0,1.736,0.221,3.497,0.658,5.291c0.453,1.791,0.923,3.418,1.424,4.899c2.632-1.296,4.459-2.243,5.461-2.844
		c1.004-0.605,1.906-1.503,2.707-2.702c0.064-0.301,0.095-0.55,0.095-0.747c0-0.279-0.064-0.501-0.185-0.676
		c-0.407-0.453-0.923-0.763-1.524-0.939c-0.607-0.173-1.333-0.261-2.159-0.261c-0.294,0-0.747,0-1.354,0c-0.607,0-1.044,0-1.308,0
		c-0.237-0.397-0.423-0.898-0.553-1.511c-0.128-0.607-0.267-1.202-0.379-1.772c-0.331-0.814-0.635-1.639-0.926-2.456v-0.671
		c0.229-0.049,0.401-0.079,0.523-0.079c0.328,0,0.725,0.2,1.171,0.605c0.462,0.398,0.832,0.635,1.099,0.714h4.041
		c0.233,0.079,0.495,0.113,0.795,0.113c0.419-0.079,0.729-0.113,0.929-0.113c0.48,0,0.825,0.067,1.044,0.2
		C160.59,131.745,160.702,132.028,160.702,132.462 M138.506,144.872c-0.771,1.7-1.263,3.385-1.466,5.061
		c0,0.173-0.127,0.285-0.373,0.339c-0.252,0.049-0.395,0.073-0.422,0.073c-0.331-0.176-0.491-0.541-0.491-1.09
		c0-0.398,0-0.698,0-0.898c0-0.197-0.049-0.401-0.137-0.601c0-0.397-0.149-0.989-0.462-1.778c-0.309-0.789-0.464-1.354-0.464-1.709
		c0-0.319,0.115-0.732,0.352-1.233c0.234-0.501,0.51-1.102,0.816-1.803c0.322-0.698,0.47-1.314,0.47-1.836
		c0-0.523-0.148-1.039-0.44-1.539c-0.589-0.501-1.439-0.781-2.551-0.841c-1.126-0.06-2.182-0.121-3.178-0.17
		c-0.295-0.221-0.441-0.546-0.441-0.971c0-0.401,0-0.689,0-0.863c0-0.176-0.045-0.449-0.142-0.807
		c-0.086-0.358-0.204-0.905-0.352-1.612c-0.143-0.713-0.337-1.344-0.58-1.894c-0.122-0.422,0.031-0.677,0.446-0.75
		c0.419-0.052,0.817,0.158,1.202,0.618c0.377,0.462,0.732,0.729,1.063,0.805c0.331,0.073,0.637,0.127,0.908,0.152
		c0.282,0.024,0.631,0.033,1.044,0.033c0.622-0.024,1.084-0.033,1.381-0.033c0.999,0,1.712,0.112,2.125,0.339
		c0.413,0.221,0.734,0.573,0.935,1.044v6.827c0,0.498,0.131,1.263,0.398,2.304c0.27,1.035,0.404,1.758,0.404,2.155
		C138.551,144.495,138.536,144.72,138.506,144.872z M126.209,133.097c-0.383,1.174-0.768,2.337-1.15,3.487
		c-0.21,0.153-0.677,0.237-1.382,0.261c-0.714,0.025-1.154,0.255-1.33,0.677c-0.151,0.574-0.227,1.087-0.227,1.533
		c0,0.704,0.076,1.302,0.227,1.803c0.14,0.501,0.453,1.335,0.932,2.51c0.033,0.297-0.043,0.637-0.227,1.017
		c-0.176,0.367-0.462,1.014-0.86,1.928c-0.41,0.908-0.686,1.8-0.874,2.656c-0.176,0.867-0.364,1.302-0.574,1.302
		c-0.176,0-0.358-0.03-0.525-0.079c-0.121-0.149-0.189-0.325-0.21-0.525c-0.012-0.197-0.018-0.333-0.018-0.413v-0.595
		c0-0.255-0.03-0.436-0.088-0.565c0-0.674-0.161-1.408-0.47-2.209c-0.301-0.802-0.613-1.579-0.907-2.325
		c0.033-0.207,0.197-0.387,0.488-0.546c0.298-0.164,0.565-0.392,0.832-0.674c0.242-0.292,0.501-0.704,0.769-1.257
		c0.267-0.55,0.403-1.09,0.403-1.609c0-0.404-0.079-0.802-0.225-1.2c-0.151-0.41-0.47-0.752-0.947-1.053
		c-0.501-0.303-1.093-0.525-1.812-0.671c-0.204,0.018-0.44,0.015-0.704-0.025c-0.267-0.039-0.349-0.202-0.267-0.506
		c0.024-0.145,0.049-0.316,0.049-0.504c0-0.189,0-0.331,0-0.428c0-0.529-0.04-1.021-0.113-1.485
		c-0.075-0.461-0.294-1.333-0.649-2.605c0-0.451,0.098-0.713,0.316-0.786c0.413-0.103,0.802,0.064,1.172,0.486
		c0.373,0.422,0.679,0.658,0.917,0.714c2.422,0.145,4.866,0.3,7.316,0.452c0.182,0.145,0.27,0.343,0.27,0.598
		C126.339,132.587,126.297,132.796,126.209,133.097z M100.37,144.872c-0.769,1.7-1.254,3.385-1.472,5.061
		c0,0.173-0.122,0.285-0.373,0.339c-0.249,0.049-0.395,0.073-0.419,0.073c-0.324-0.176-0.486-0.541-0.486-1.09
		c0-0.398,0-0.698,0-0.898c0-0.197-0.043-0.401-0.13-0.601c0-0.397-0.17-0.989-0.477-1.778c-0.309-0.789-0.461-1.354-0.461-1.709
		c0-0.319,0.118-0.732,0.352-1.233c0.236-0.501,0.513-1.102,0.825-1.803c0.311-0.698,0.462-1.314,0.462-1.836
		c0-0.523-0.143-1.039-0.444-1.539c-0.582-0.501-1.426-0.781-2.556-0.841c-1.117-0.06-2.173-0.121-3.175-0.17
		c-0.292-0.221-0.438-0.546-0.438-0.971c0-0.401,0-0.689,0-0.863c0-0.176-0.048-0.449-0.13-0.807
		c-0.098-0.358-0.21-0.905-0.356-1.612c-0.155-0.713-0.34-1.344-0.583-1.894c-0.115-0.422,0.031-0.677,0.447-0.75
		c0.419-0.052,0.816,0.158,1.199,0.618c0.385,0.462,0.74,0.729,1.066,0.805c0.324,0.073,0.63,0.127,0.901,0.152
		c0.291,0.024,0.643,0.033,1.05,0.033c0.626-0.024,1.084-0.033,1.378-0.033c1.008,0,1.715,0.112,2.128,0.339
		c0.419,0.221,0.729,0.573,0.932,1.044v6.827c0,0.498,0.136,1.263,0.4,2.304c0.267,1.035,0.398,1.758,0.398,2.155
		C100.409,144.495,100.401,144.72,100.37,144.872z M72.84,144.638c0,0.219-0.058,0.416-0.173,0.592
		c-0.118,0.176-0.313,0.394-0.58,0.664c-0.561,1.369-0.841,2.778-0.841,4.217c-0.18,0.088-0.358,0.161-0.535,0.2
		c-0.18,0.049-0.324,0.049-0.4-0.03c-0.219-0.233-0.313-0.592-0.313-1.035v-0.529c0-0.242-0.039-0.51-0.124-0.801
		c-0.098-0.288-0.273-0.665-0.535-1.124c-0.267-0.464-0.719-1.084-1.206-1.927c-0.136-0.242-0.021-0.528,0.197-0.783
		c0.225-0.252,0.462-0.489,0.653-0.74c0.252-0.365,0.437-0.896,0.616-1.551c0.176-0.649,0.309-1.199,0.398-1.646
		c0.121-0.081,0.292-0.13,0.533-0.13c0.501,0,0.686,0.158,0.535,0.464c0,0.774,0.161,1.496,0.462,2.159
		C71.844,143.305,72.279,143.967,72.84,144.638z M87.271,143.584c0,0.374-0.122,0.868-0.38,1.47
		c-0.248,0.619-0.421,1.026-0.51,1.238c-0.088,0.21-0.195,0.871-0.309,1.979c-0.113,1.111-0.191,1.749-0.219,1.922
		c-0.122,0.128-0.303,0.155-0.535,0.094c-0.233-0.064-0.37-0.094-0.4-0.094c-0.121-0.325-0.231-0.996-0.334-2.007
		c-0.104-1.014-0.298-1.742-0.599-2.195c-0.033-0.221-0.233-0.542-0.6-0.956c-0.371-0.413-0.556-0.744-0.556-0.989
		c0-0.127,0.049-0.265,0.134-0.413c0.917-0.801,1.378-1.812,1.378-3.035c0-0.379-0.04-0.752-0.137-1.123
		c-0.204-0.577-0.537-1.087-0.998-1.539c-0.459-0.452-0.996-0.763-1.618-0.944l-4.128-0.182h-8.791
		c-0.355-0.2-0.582-0.462-0.689-0.798c-0.109-0.334-0.158-0.705-0.158-1.127c0-0.592-0.058-1.029-0.173-1.302
		c0-0.294-0.122-0.761-0.385-1.402c-0.253-0.637-0.368-1.099-0.368-1.369c0.21-0.145,0.452-0.224,0.744-0.224
		c0.261,0,0.674,0.185,1.226,0.558c0.556,0.38,1.035,0.525,1.445,0.452h13.89c0.173,0,0.474,0,0.886,0
		c0.765,0,1.367,0.179,1.785,0.528c0.441,0.92,0.659,1.846,0.659,2.8c0,0.64-0.088,1.095-0.261,1.36
		c-0.18,0.267-0.525,0.549-1.041,0.852c-0.522,0.316-0.78,0.632-0.78,0.96C85.45,140.09,86.05,141.912,87.271,143.584z
		 M62.986,137.708c-0.54,0.252-0.977,0.537-1.333,0.868c-0.352,0.322-0.528,0.696-0.528,1.124c0,0.398,0,0.668,0,0.819
		c0,0.681,0.179,1.415,0.543,2.216c0.501,0.923,0.875,1.612,1.099,2.064c0.058,0.246-0.009,0.521-0.2,0.837
		c-0.194,0.316-0.367,0.607-0.513,0.881c-0.354,1.175-0.604,2.074-0.734,2.68c-0.137,0.617-0.194,1.172-0.194,1.673h-1.026
		c0-1.074-0.149-2.04-0.441-2.904c-0.297-0.865-0.759-1.783-1.38-2.754c-0.122-0.258-0.098-0.492,0.072-0.717
		c0.152-0.227,0.313-0.449,0.461-0.679c0.329-0.693,0.58-1.321,0.774-1.873c0.194-0.55,0.295-1.084,0.295-1.609
		c-0.207-0.801-0.373-1.351-0.488-1.651c-0.122-0.295-0.423-0.562-0.899-0.786c-0.477-0.176-1.06-0.292-1.746-0.355
		c-0.683-0.064-1.426-0.098-2.222-0.098c-1.138,0-2.662-0.028-4.563-0.091c-1.909-0.064-3.263-0.094-4.071-0.094
		c-0.3-0.221-0.446-0.537-0.446-0.934c0.03-0.526,0.073-1.051,0.13-1.579c0-0.574-0.106-1.323-0.328-2.247
		c-0.219-0.926-0.346-1.46-0.38-1.615c0.058-0.145,0.194-0.217,0.404-0.217c0.237,0.041,0.473,0.097,0.707,0.145
		c0.355,0.449,0.646,0.771,0.865,0.956c0.219,0.185,0.528,0.283,0.908,0.283l4.265,0.149l9.502-0.261
		c0.267,0.048,0.546,0.087,0.844,0.112c0.3,0.075,0.461,0.221,0.51,0.449c0.048,0.225,0.066,0.449,0.066,0.671
		c0,0.229,0,0.444,0,0.641c0,0.425-0.002,0.841-0.018,1.238c-0.015,0.4-0.024,0.798-0.024,1.202c0,0.301,0,0.595,0,0.899
		C62.956,137.426,62.986,137.611,62.986,137.708z M41.94,143.369c0,0.398-0.179,1.041-0.553,1.916
		c-0.37,0.868-0.597,1.411-0.668,1.606c-0.073,0.203-0.134,0.604-0.198,1.205c-0.063,0.599-0.094,1.173-0.094,1.724v0.452
		c-0.058,0.098-0.163,0.14-0.309,0.124c-0.152-0.009-0.291-0.012-0.437-0.012c-0.321-0.255-0.495-0.628-0.495-1.13
		c0-0.373,0-0.658,0-0.862c0-0.225-0.069-0.516-0.191-0.881c-0.13-0.364-0.276-0.868-0.449-1.521
		c-0.265-0.771-0.564-1.384-0.911-1.836c0-0.498,0.219-1.121,0.662-1.873c0.452-0.75,0.698-1.312,0.752-1.685
		c0.097-0.279,0.137-0.55,0.137-0.826c0-0.776-0.242-1.429-0.729-1.972c-0.492-0.528-1.15-0.808-1.976-0.808H27.16
		c-0.504,0-0.893,0-1.157,0c-0.301,0-0.567-0.033-0.801-0.107c-0.174-0.148-0.301-0.315-0.374-0.479
		c-0.076-0.177-0.115-0.404-0.115-0.677c0.034-0.401,0.043-0.692,0.043-0.892c0-0.227-0.027-0.389-0.088-0.486
		c-0.085-0.55-0.219-1.093-0.391-1.637c-0.185-0.555-0.419-1.132-0.713-1.757c0-0.498,0.163-0.744,0.488-0.744
		c0.292,0,0.616,0.155,0.954,0.465c0.339,0.316,0.61,0.506,0.826,0.582l1.108,0.337h11.544c0.47,0.125,0.898,0.343,1.281,0.656
		c0.389,0.315,0.64,0.719,0.777,1.223c0.137,0.494,0.201,1.175,0.201,2.022c0,0.398-0.03,0.999-0.088,1.796
		c-0.058,0.802-0.088,1.412-0.088,1.834c0,0.953,0.088,1.748,0.268,2.386C41.008,142.152,41.382,142.771,41.94,143.369z"/>
</g>
</svg>
