<?xml version="1.0" encoding="utf-8"?>
<!-- Generator: Adobe Illustrator 17.0.1, SVG Export Plug-In . SVG Version: 6.00 Build 0)  -->
<!DOCTYPE svg PUBLIC "-//W3C//DTD SVG 1.1//EN" "http://www.w3.org/Graphics/SVG/1.1/DTD/svg11.dtd">
<svg version="1.1" id="Layer_1" xmlns="http://www.w3.org/2000/svg" xmlns:xlink="http://www.w3.org/1999/xlink" x="0px" y="0px"
	 width="20.351px" height="20px" viewBox="0 0 20.351 20" enable-background="new 0 0 20.351 20" xml:space="preserve">
<g>
	<path fill="#F9BF30" d="M19.997,10.223c0.12-5.638-4.4-10.216-9.962-10.223C4.47-0.006,0,4.447,0,9.982
		c-0.02,5.41,4.281,9.855,9.697,10.013C15.34,20.16,19.881,15.691,19.997,10.223z M9.818,8.802
		c-0.946,0.936-1.902,1.863-2.854,2.793c-0.371,0.362-0.87,0.392-1.184,0.068c-0.332-0.343-0.287-0.869,0.087-1.232
		C7.043,9.292,8.214,8.15,9.382,7.004c0.361-0.355,0.828-0.356,1.187-0.007c1.179,1.147,2.363,2.289,3.551,3.428
		c0.19,0.182,0.318,0.38,0.323,0.668c-0.012,0.323-0.167,0.58-0.479,0.729c-0.295,0.14-0.624,0.068-0.889-0.187
		c-0.98-0.941-1.961-1.881-2.934-2.829C10.013,8.683,9.951,8.671,9.818,8.802z"/>
</g>
</svg>
