<?xml version="1.0" encoding="utf-8"?>
<!-- Generator: Adobe Illustrator 17.0.1, SVG Export Plug-In . SVG Version: 6.00 Build 0)  -->
<!DOCTYPE svg PUBLIC "-//W3C//DTD SVG 1.1//EN" "http://www.w3.org/Graphics/SVG/1.1/DTD/svg11.dtd">
<svg version="1.1" id="Layer_1" xmlns="http://www.w3.org/2000/svg" xmlns:xlink="http://www.w3.org/1999/xlink" x="0px" y="0px"
	 width="815px" height="158px" viewBox="0 0 815 158" enable-background="new 0 0 815 158" xml:space="preserve">
<g>
	<path fill="#634033" d="M815,146.1c0,5.192-2.569,9.9-5.836,9.9h-0.125c-3.267,0-6.038-4.709-6.038-9.9V83.9
		c0-5.192,2.772-8.9,6.038-8.9h0.125c3.267,0,5.836,3.709,5.836,8.9V146.1z"/>
	<rect y="75" fill="#634033" width="809" height="12"/>
	<path fill="#634033" d="M14,75.1c0,5.192-2.53,9.9-6.543,9.9H7.303C3.29,85,0,80.291,0,75.1V12.9C0,7.709,3.29,4,7.303,4h0.154
		C11.47,4,14,7.709,14,12.9V75.1z"/>
</g>
</svg>
