<?xml version="1.0" encoding="utf-8"?>
<!-- Generator: Adobe Illustrator 17.0.1, SVG Export Plug-In . SVG Version: 6.00 Build 0)  -->
<!DOCTYPE svg PUBLIC "-//W3C//DTD SVG 1.1//EN" "http://www.w3.org/Graphics/SVG/1.1/DTD/svg11.dtd">
<svg version="1.1" id="Layer_1" xmlns="http://www.w3.org/2000/svg" xmlns:xlink="http://www.w3.org/1999/xlink" x="0px" y="0px"
	 width="36.379px" height="35.422px" viewBox="2.375 -1.587 36.379 35.422" enable-background="new 2.375 -1.587 36.379 35.422"
	 xml:space="preserve">
<path fill="#FFFFFF" d="M3.335,27.563c0-7.634,0-15.268,0-22.902c0.007-0.036,0.017-0.072,0.022-0.109
	C3.383,4.337,3.396,4.12,3.435,3.907c0.311-1.69,1.145-3.067,2.501-4.12c0.922-0.716,1.968-1.151,3.127-1.308
	C9.236-1.545,9.41-1.565,9.583-1.587c7.634,0,15.268,0,22.902,0c0.04,0.007,0.08,0.015,0.121,0.021
	c0.336,0.051,0.678,0.077,1.008,0.155c3.035,0.717,5.136,3.369,5.137,6.49c0.004,7.36,0.002,14.72,0,22.08
	c0,1.163-0.26,2.268-0.854,3.272c-1.3,2.2-3.241,3.379-5.795,3.389c-7.375,0.028-14.75,0.01-22.125,0.009
	c-0.461,0-0.919-0.046-1.37-0.143c-1.384-0.298-2.56-0.966-3.518-2.005c-0.895-0.971-1.453-2.113-1.665-3.419
	C3.387,28.031,3.365,27.796,3.335,27.563z M22.366,17.49c0,4.096,0,8.173,0,12.255c1.849,0,3.686,0,5.537,0
	c0-4.087,0-8.167,0-12.258c1.109,0,2.204,0,3.309,0c0.151-1.38,0.301-2.749,0.452-4.133c-1.265,0-2.51,0-3.763,0
	c0-0.045,0-0.079,0-0.112c0-0.715-0.004-1.431,0.003-2.146c0.002-0.269,0.014-0.539,0.046-0.806c0.05-0.41,0.27-0.694,0.674-0.826
	c0.281-0.092,0.572-0.118,0.864-0.12c0.787-0.005,1.573-0.003,2.36-0.003c0.043,0,0.086,0,0.129,0c0-1.382,0-2.747,0-4.112
	c-0.024-0.002-0.039-0.005-0.054-0.005c-1.562,0.007-3.124,0.005-4.685,0.024c-0.649,0.008-1.287,0.126-1.905,0.334
	c-1.012,0.342-1.808,0.948-2.313,1.905c-0.455,0.864-0.619,1.801-0.643,2.762c-0.024,0.985-0.01,1.97-0.013,2.955
	c0,0.047,0,0.095,0,0.155c-0.725,0-1.434,0-2.143,0c0,1.382,0,2.751,0,4.13C20.934,17.49,21.641,17.49,22.366,17.49z"/>
</svg>
