<?xml version="1.0" encoding="utf-8"?>
<!-- Generator: Adobe Illustrator 17.0.1, SVG Export Plug-In . SVG Version: 6.00 Build 0)  -->
<!DOCTYPE svg PUBLIC "-//W3C//DTD SVG 1.1//EN" "http://www.w3.org/Graphics/SVG/1.1/DTD/svg11.dtd">
<svg version="1.1" id="Layer_1" xmlns="http://www.w3.org/2000/svg" xmlns:xlink="http://www.w3.org/1999/xlink" x="0px" y="0px"
	 width="260px" height="260px" viewBox="-8.5 -12.195 260 260" enable-background="new -8.5 -12.195 260 260" xml:space="preserve">
<g>
	<g>
		
			<image overflow="visible" opacity="0.5" width="1497" height="1009" xlink:href="75429015.png"  transform="matrix(1 0 0 1 -1161.0229 -155.1745)">
		</image>
		<g>
			<g>
				<defs>
					<path id="SVGID_1_" d="M134.416,137.512c-10.883,7.132-25.49,4.091-32.623-6.791c-7.132-10.882-4.092-25.49,6.791-32.622
						c10.882-7.132,25.49-4.091,32.622,6.791C148.339,115.772,145.298,130.38,134.416,137.512z M122.155,39.059l1.16,20.497
						c3.387,0.109,6.754,0.51,10.061,1.199c13.037,2.714,25.149,9.868,33.873,20.948l17.171-11.254
						c-11.858-15.785-28.702-25.95-46.871-29.734C132.493,39.663,127.337,39.107,122.155,39.059z M53.622,77.861l18.331,9.244
						c4.341-7.017,10.249-13.219,17.603-18.04c7.355-4.821,15.399-7.762,23.565-8.942l-1.161-20.496
						c-11.646,1.411-23.153,5.454-33.625,12.318C67.862,58.808,59.562,67.746,53.622,77.861z M52.971,156.601l17.171-11.254
						c-6.678-12.42-8.404-26.381-5.691-39.418c0.688-3.307,1.663-6.556,2.915-9.703l-18.332-9.243
						c-2.024,4.769-3.57,9.722-4.623,14.775C40.63,119.928,43.229,139.428,52.971,156.601z M120.856,196.551l-1.161-20.497
						c-3.39-0.107-6.76-0.51-10.071-1.199c-13.036-2.715-25.149-9.868-33.872-20.948l-17.171,11.254
						c11.858,15.785,28.702,25.95,46.871,29.734C110.511,195.948,115.672,196.503,120.856,196.551z M175.635,139.385l18.332,9.244
						c2.024-4.77,3.571-9.722,4.624-14.776c3.78-18.17,1.181-37.671-8.561-54.843l-17.171,11.254
						c6.678,12.42,8.404,26.381,5.691,39.418C177.862,132.988,176.886,136.238,175.635,139.385z M189.378,157.749l-18.33-9.244
						c-4.341,7.017-10.249,13.22-17.603,18.039c-7.358,4.822-15.405,7.763-23.575,8.943l1.161,20.497
						c11.649-1.409,23.16-5.454,33.635-12.32C175.138,176.802,183.438,167.864,189.378,157.749z M170.719,205.281
						c-3.732,2.103-7.549,3.937-11.428,5.519l1.024,6.113l1.501,8.962l-4.239,1.398l-4.238,1.396l-4.122-8.097l-2.805-5.514
						c-4.129,1.058-8.295,1.838-12.478,2.357l-0.592,6.168l-0.867,9.043l-4.458,0.254l-4.456,0.251l-1.885-8.888l-1.288-6.074
						c-4.238-0.05-8.464-0.371-12.649-0.952l-2.178,5.826l-3.179,8.512l-4.37-0.91l-4.37-0.91l0.479-9.073l0.328-6.209
						c-4.071-1.137-8.071-2.531-11.978-4.175l-3.605,5.053l-5.274,7.4l-3.986-2.01l-3.985-2.012l2.811-8.638l1.917-5.887
						c-3.629-2.144-7.139-4.526-10.502-7.143l-4.77,3.933l-7.009,5.782l-3.33-2.972l-3.328-2.974l4.951-7.618l3.372-5.186
						c-2.928-2.999-5.695-6.208-8.278-9.627l-5.641,2.572l-8.266,3.77l-2.447-3.734l-2.445-3.733l6.753-6.076l4.615-4.152
						c-2.103-3.733-3.938-7.551-5.518-11.428l-6.114,1.024l-8.962,1.501l-1.397-4.239l-1.395-4.239l8.097-4.12l5.514-2.806
						c-1.058-4.128-1.839-8.296-2.358-12.478l-6.168-0.593l-9.044-0.867l-0.254-4.458l-0.251-4.455l8.888-1.885l6.074-1.289
						c0.049-4.239,0.371-8.464,0.953-12.65l-5.827-2.178l-8.512-3.178l0.91-4.371l0.91-4.369l9.073,0.481l6.209,0.327
						c1.137-4.071,2.53-8.073,4.174-11.98l-5.053-3.603l-7.4-5.273l2.01-3.986l2.011-3.985l8.639,2.811l5.886,1.915
						c2.144-3.63,4.526-7.139,7.143-10.502l-3.932-4.769l-5.781-7.009l2.972-3.33l2.974-3.328l7.618,4.951l5.186,3.373
						c2.999-2.929,6.211-5.694,9.628-8.277l-2.572-5.643l-3.77-8.266l3.734-2.447l3.733-2.445l6.076,6.753l4.152,4.615
						c3.732-2.103,7.55-3.938,11.427-5.518l-1.024-6.113l-1.501-8.962l4.238-1.398l4.239-1.394l4.12,8.096l2.806,5.514
						c4.129-1.058,8.296-1.839,12.478-2.358l0.593-6.168l0.868-9.044l4.458-0.254l4.455-0.251l1.884,8.888l1.289,6.074
						c4.239,0.05,8.464,0.371,12.65,0.952l2.178-5.826l3.178-8.512l4.37,0.909l4.37,0.911l-0.481,9.073l-0.326,6.209
						c4.071,1.137,8.072,2.53,11.979,4.174l3.604-5.053l5.273-7.4l3.987,2.01l3.984,2.012l-2.812,8.639l-1.915,5.886
						c3.629,2.144,7.138,4.526,10.502,7.143l4.769-3.932l7.009-5.782l3.33,2.972l3.328,2.974l-4.952,7.618l-3.372,5.186
						c2.928,2.999,5.694,6.21,8.276,9.628l5.643-2.572l8.266-3.77l2.447,3.734l2.445,3.734l-6.753,6.075l-4.615,4.15
						c2.105,3.732,3.94,7.551,5.52,11.43l6.111-1.024l8.962-1.501l1.398,4.239l1.394,4.239l-8.096,4.12l-5.516,2.807
						c1.057,4.127,1.84,8.294,2.358,12.476l6.17,0.593l9.043,0.867l0.254,4.458l0.25,4.455l-8.888,1.884l-6.077,1.289
						c-0.051,4.239-0.37,8.463-0.95,12.648l5.827,2.179l8.512,3.178l-0.91,4.371l-0.911,4.369l-9.072-0.481l-6.213-0.328
						c-1.136,4.07-2.532,8.07-4.175,11.978l5.058,3.607l7.4,5.273l-2.01,3.987l-2.011,3.985l-8.639-2.811l-5.891-1.918
						c-2.145,3.628-4.525,7.137-7.143,10.5l3.937,4.774l5.782,7.009l-2.972,3.33l-2.974,3.327l-7.618-4.951l-5.192-3.375
						c-2.999,2.927-6.208,5.691-9.625,8.273l2.576,5.648l3.767,8.268l-3.732,2.446l-3.732,2.446l-6.078-6.753L170.719,205.281z"/>
				</defs>
				<clipPath id="SVGID_2_">
					<use xlink:href="#SVGID_1_"  overflow="visible"/>
				</clipPath>
				<g transform="matrix(1 0 0 1 2.120281e-005 -3.519481e-006)" clip-path="url(#SVGID_2_)">
					
						<image overflow="visible" width="4889" height="3259" xlink:href="75429017.jpg"  transform="matrix(0.3 0 0 0.3 -1147.9862 -141.8294)">
					</image>
				</g>
			</g>
		</g>
	</g>
	<g opacity="0.5">
		
			<linearGradient id="SVGID_3_" gradientUnits="userSpaceOnUse" x1="842.5033" y1="422.3512" x2="842.5033" y2="369.7789" gradientTransform="matrix(-0.7071 -0.7071 0.7071 -0.7071 437.1785 993.5953)">
			<stop  offset="0.0056" style="stop-color:#401617"/>
			<stop  offset="0.0843" style="stop-color:#6B4C2D"/>
			<stop  offset="0.382" style="stop-color:#A58A55"/>
			<stop  offset="0.5618" style="stop-color:#E5D4B5"/>
			<stop  offset="0.7973" style="stop-color:#987A59"/>
			<stop  offset="0.8034" style="stop-color:#967857"/>
			<stop  offset="0.9551" style="stop-color:#814F2F"/>
		</linearGradient>
		<path fill="url(#SVGID_3_)" d="M95.872,111.937c3.235-14.132,17.364-22.998,31.496-19.763
			c14.132,3.235,22.998,17.364,19.763,31.496c-3.235,14.132-17.364,22.998-31.497,19.763S92.638,126.069,95.872,111.937z
			 M145.424,123.279c3.02-13.191-5.255-26.378-18.446-29.398c-13.19-3.019-26.378,5.255-29.398,18.446
			c-3.019,13.191,5.256,26.379,18.446,29.398C129.217,144.745,142.405,136.47,145.424,123.279z"/>
		
			<linearGradient id="SVGID_4_" gradientUnits="userSpaceOnUse" x1="815.7941" y1="396.0614" x2="869.2056" y2="396.0614" gradientTransform="matrix(-0.7071 -0.7071 0.7071 -0.7071 437.1785 993.5953)">
			<stop  offset="0.0056" style="stop-color:#401617"/>
			<stop  offset="0.0843" style="stop-color:#6B4C2D"/>
			<stop  offset="0.382" style="stop-color:#A58A55"/>
			<stop  offset="0.5618" style="stop-color:#E5D4B5"/>
			<stop  offset="0.7973" style="stop-color:#987A59"/>
			<stop  offset="0.8034" style="stop-color:#967857"/>
			<stop  offset="0.9551" style="stop-color:#814F2F"/>
		</linearGradient>
		<path fill="url(#SVGID_4_)" d="M140.352,98.892c6.29,6.29,9.312,15.579,7.185,24.871c-1.589,6.943-5.796,12.858-11.846,16.654
			c-6.05,3.796-13.206,5.011-20.15,3.422c-6.942-1.59-12.858-5.795-16.653-11.846c-3.796-6.05-5.012-13.206-3.422-20.149l0,0
			c3.286-14.356,17.639-23.362,31.995-20.076C132.525,92.926,136.925,95.464,140.352,98.892z M103.254,136.15
			c3.398,3.398,7.683,5.781,12.474,6.878c6.727,1.54,13.659,0.362,19.52-3.316c5.862-3.678,9.938-9.408,11.478-16.134
			c3.184-13.908-5.541-27.815-19.451-30.998c-13.908-3.183-27.814,5.542-30.997,19.45l0,0c-1.54,6.726-0.362,13.659,3.316,19.521
			C100.652,133.237,101.881,134.776,103.254,136.15z M139.103,100.11c1.324,1.324,2.509,2.808,3.529,4.435
			c3.547,5.653,4.683,12.339,3.197,18.827c-1.485,6.488-5.416,12.015-11.069,15.562c-5.653,3.547-12.34,4.683-18.828,3.198
			c-13.413-3.07-21.83-16.483-18.758-29.897c1.485-6.488,5.416-12.014,11.069-15.562c5.653-3.547,12.339-4.683,18.827-3.197
			C131.692,94.533,135.825,96.832,139.103,100.11z M104.476,134.886c3.097,3.097,7.069,5.387,11.643,6.434
			c6.271,1.436,12.734,0.338,18.199-3.091c5.465-3.429,9.265-8.771,10.7-15.042l0,0c1.436-6.271,0.338-12.735-3.091-18.199
			c-3.428-5.465-8.771-9.265-15.042-10.7c-6.271-1.436-12.734-0.338-18.199,3.091c-5.464,3.429-9.265,8.771-10.7,15.042
			C96.065,120.813,98.795,129.205,104.476,134.886z"/>
	</g>
	<g opacity="0.5">
		
			<linearGradient id="SVGID_5_" gradientUnits="userSpaceOnUse" x1="842.5029" y1="453.3523" x2="842.5029" y2="338.7898" gradientTransform="matrix(-0.7071 -0.7071 0.7071 -0.7071 437.1785 993.5953)">
			<stop  offset="0.0056" style="stop-color:#401617"/>
			<stop  offset="0.0843" style="stop-color:#6B4C2D"/>
			<stop  offset="0.382" style="stop-color:#A58A55"/>
			<stop  offset="0.5618" style="stop-color:#E5D4B5"/>
			<stop  offset="0.7973" style="stop-color:#987A59"/>
			<stop  offset="0.8034" style="stop-color:#967857"/>
			<stop  offset="0.9551" style="stop-color:#814F2F"/>
		</linearGradient>
		<path fill="url(#SVGID_5_)" d="M65.656,105.015c7.049-30.796,37.839-50.116,68.634-43.066
			c30.797,7.049,50.117,37.839,43.067,68.635c-7.049,30.797-37.84,50.117-68.636,43.067
			C77.926,166.601,58.607,135.811,65.656,105.015z M173.636,129.731c6.58-28.745-11.452-57.482-40.197-64.062
			c-28.744-6.58-57.482,11.452-64.062,40.197c-6.58,28.745,11.453,57.483,40.197,64.063
			C138.318,176.509,167.056,158.477,173.636,129.731z"/>
		
			<linearGradient id="SVGID_6_" gradientUnits="userSpaceOnUse" x1="784.2999" y1="396.0632" x2="900.691" y2="396.0632" gradientTransform="matrix(-0.7071 -0.7071 0.7071 -0.7071 437.1785 993.5953)">
			<stop  offset="0.0056" style="stop-color:#401617"/>
			<stop  offset="0.0843" style="stop-color:#6B4C2D"/>
			<stop  offset="0.382" style="stop-color:#A58A55"/>
			<stop  offset="0.5618" style="stop-color:#E5D4B5"/>
			<stop  offset="0.7973" style="stop-color:#987A59"/>
			<stop  offset="0.8034" style="stop-color:#967857"/>
			<stop  offset="0.9551" style="stop-color:#814F2F"/>
		</linearGradient>
		<path opacity="0.5" fill="url(#SVGID_6_)" d="M81.742,157.778c7.405,7.405,16.743,12.598,27.183,14.988
			c14.659,3.355,29.765,0.789,42.537-7.225c12.775-8.015,21.656-20.502,25.012-35.159c6.937-30.308-12.074-60.613-42.386-67.549
			c-30.308-6.937-60.61,12.077-67.547,42.385l0,0c-3.355,14.658-0.789,29.765,7.226,42.539
			C76.072,151.431,78.75,154.785,81.742,157.778z M159.861,79.243c2.886,2.886,5.467,6.118,7.691,9.664
			c7.73,12.319,10.205,26.889,6.968,41.028c-3.236,14.137-11.803,26.182-24.121,33.911c-12.318,7.73-26.891,10.205-41.029,6.969
			c-29.23-6.691-47.57-35.919-40.877-65.15c3.236-14.138,11.801-26.181,24.121-33.911c12.319-7.729,26.889-10.204,41.028-6.968
			C143.711,67.09,152.718,72.1,159.861,79.243z M162.584,76.588c13.707,13.706,20.293,33.949,15.657,54.199
			c-3.463,15.131-12.63,28.019-25.814,36.291s-28.777,10.92-43.909,7.457c-15.128-3.464-28.02-12.629-36.29-25.815
			c-8.272-13.184-10.921-28.777-7.457-43.908l0,0c7.161-31.283,38.439-50.91,69.722-43.749
			C145.528,63.589,155.115,69.118,162.584,76.588z M84.404,155.024c6.748,6.748,15.404,11.739,25.372,14.021
			c13.664,3.128,27.75,0.736,39.658-6.736c11.908-7.472,20.189-19.114,23.318-32.78l0,0c3.129-13.666,0.736-27.75-6.736-39.659
			c-7.471-11.91-19.114-20.189-32.78-23.317c-13.665-3.128-27.749-0.736-39.657,6.736c-11.907,7.471-20.189,19.112-23.317,32.778
			C66.076,124.357,72.025,142.645,84.404,155.024z"/>
	</g>
	<g opacity="0.5">
		
			<linearGradient id="SVGID_7_" gradientUnits="userSpaceOnUse" x1="842.5071" y1="495.6688" x2="842.5071" y2="296.4847" gradientTransform="matrix(-0.7071 -0.7071 0.7071 -0.7071 437.1785 993.5953)">
			<stop  offset="0.0056" style="stop-color:#401617"/>
			<stop  offset="0.0843" style="stop-color:#6B4C2D"/>
			<stop  offset="0.382" style="stop-color:#A58A55"/>
			<stop  offset="0.5618" style="stop-color:#E5D4B5"/>
			<stop  offset="0.7973" style="stop-color:#987A59"/>
			<stop  offset="0.8034" style="stop-color:#967857"/>
			<stop  offset="0.9551" style="stop-color:#814F2F"/>
		</linearGradient>
		<path fill="url(#SVGID_7_)" d="M24.403,95.565C36.659,42.022,90.192,8.431,143.734,20.687
			c53.544,12.256,87.135,65.789,74.879,119.332c-12.256,53.544-65.79,87.135-119.333,74.879S12.147,149.109,24.403,95.565z
			 M212.142,138.538c11.441-49.977-19.911-99.942-69.889-111.382C92.279,15.716,42.312,47.068,30.872,97.045
			c-11.44,49.978,19.913,99.943,69.888,111.382C150.738,219.867,200.703,188.516,212.142,138.538z"/>
		
			<linearGradient id="SVGID_8_" gradientUnits="userSpaceOnUse" x1="741.3123" y1="396.0631" x2="943.6758" y2="396.0631" gradientTransform="matrix(-0.7071 -0.7071 0.7071 -0.7071 437.1785 993.5953)">
			<stop  offset="0.0056" style="stop-color:#401617"/>
			<stop  offset="0.0843" style="stop-color:#6B4C2D"/>
			<stop  offset="0.382" style="stop-color:#A58A55"/>
			<stop  offset="0.5618" style="stop-color:#E5D4B5"/>
			<stop  offset="0.7973" style="stop-color:#987A59"/>
			<stop  offset="0.8034" style="stop-color:#967857"/>
			<stop  offset="0.9551" style="stop-color:#814F2F"/>
		</linearGradient>
		<path fill="url(#SVGID_8_)" d="M192.928,46.14c23.832,23.831,35.282,59.026,27.223,94.232
			c-6.021,26.307-21.959,48.714-44.881,63.098s-50.033,18.986-76.342,12.966c-26.303-6.023-48.717-21.958-63.096-44.883
			c-14.383-22.923-18.988-50.034-12.965-76.34l0,0c12.45-54.391,66.831-88.514,121.222-76.065
			C163.273,23.539,179.941,33.153,192.928,46.14z M52.372,187.301c12.876,12.876,29.11,21.903,47.261,26.058
			c25.486,5.833,51.75,1.373,73.957-12.562c22.211-13.935,37.652-35.646,43.486-61.129c12.062-52.695-20.992-105.385-73.695-117.444
			C90.687,10.164,38.002,43.222,25.94,95.916l0,0c-5.833,25.485-1.372,51.751,12.563,73.96
			C42.514,176.267,47.168,182.098,52.372,187.301z M188.193,50.756c5.017,5.017,9.505,10.637,13.372,16.802
			c13.44,21.418,17.743,46.75,12.115,71.333c-5.626,24.58-20.521,45.522-41.938,58.96c-21.417,13.439-46.753,17.743-71.335,12.116
			c-50.821-11.633-82.708-62.45-71.071-113.274c5.626-24.581,20.519-45.519,41.938-58.96c21.418-13.438,46.751-17.741,71.333-12.115
			C160.113,29.627,175.774,38.337,188.193,50.756z M56.999,182.512c11.732,11.732,26.782,20.411,44.114,24.378
			c23.758,5.439,48.248,1.279,68.951-11.711c20.705-12.992,35.102-33.232,40.541-56.992l0,0c5.44-23.761,1.281-48.248-11.712-68.953
			C185.904,48.527,165.66,34.132,141.9,28.695c-23.758-5.439-48.246-1.28-68.95,11.712c-20.703,12.99-35.101,33.23-40.54,56.99
			C25.133,129.194,35.476,160.989,56.999,182.512z"/>
	</g>
</g>
</svg>
