<?xml version="1.0" encoding="utf-8"?>
<!-- Generator: Adobe Illustrator 17.0.1, SVG Export Plug-In . SVG Version: 6.00 Build 0)  -->
<!DOCTYPE svg PUBLIC "-//W3C//DTD SVG 1.1//EN" "http://www.w3.org/Graphics/SVG/1.1/DTD/svg11.dtd">
<svg version="1.1" id="Layer_1" xmlns="http://www.w3.org/2000/svg" xmlns:xlink="http://www.w3.org/1999/xlink" x="0px" y="0px"
	 width="36.379px" height="35.422px" viewBox="0 0 36.379 35.422" enable-background="new 0 0 36.379 35.422" xml:space="preserve">
<g>
	<path fill="#FFFFFF" d="M18.163,34.325c-4.117,0-8.234-0.047-12.349,0.021c-1.902,0.032-4.125-1.389-4.129-4.079
		c-0.011-8.287-0.012-16.573,0.001-24.86c0.004-2.671,2.215-4.082,4.136-4.07c8.26,0.05,16.52,0.05,24.779,0.002
		c2.19-0.013,4.112,1.786,4.101,4.097c-0.041,8.273-0.039,16.546-0.001,24.819c0.011,2.313-1.915,4.116-4.069,4.086
		C26.477,34.284,22.319,34.325,18.163,34.325z M14.338,20.326c-1.064,0.112-2.065,0.177-3.051,0.331
		c-1.491,0.234-2.891,0.717-4.062,1.726c-1.738,1.497-2.372,4.577-0.433,6.515c0.657,0.656,1.433,1.129,2.291,1.467
		c2.149,0.846,4.377,0.99,6.643,0.688c1.465-0.195,2.846-0.64,4.066-1.506c2.8-1.987,3.154-5.634,0.757-8.09
		c-0.571-0.585-1.243-1.072-1.865-1.608c-0.483-0.417-1.004-0.801-1.431-1.269c-0.723-0.793-0.69-1.571,0.062-2.34
		c0.392-0.401,0.839-0.75,1.262-1.121c2.517-2.21,2.52-5.64,0.01-7.849c-0.026-0.023-0.03-0.07-0.056-0.134
		c0.117,0,0.211-0.014,0.298,0.002c1.016,0.186,1.794-0.166,2.381-1.009c0.19-0.272,0.451-0.494,0.765-0.831
		c-0.321,0-0.486,0-0.652,0c-2.361,0-4.723-0.033-7.083,0.017c-0.873,0.019-1.767,0.142-2.607,0.377
		c-2.77,0.774-4.392,3.03-4.312,5.873c0.074,2.651,1.747,4.58,4.567,5.223c0.585,0.133,1.194,0.161,1.831,0.243
		C13.206,18.256,13.315,19.363,14.338,20.326z M25.134,7.216c0,1.032,0,2.013,0,3.035c-0.191,0-0.335,0-0.479,0
		c-0.748,0-1.496-0.008-2.243,0.009c-0.11,0.002-0.307,0.113-0.312,0.183c-0.029,0.445-0.015,0.894-0.015,1.377
		c1.051,0,2.034,0,3.057,0c0,0.182,0,0.327,0,0.471c0,0.748-0.007,1.496,0.009,2.243c0.002,0.112,0.111,0.314,0.181,0.318
		c0.445,0.029,0.894,0.015,1.393,0.015c0-1.058,0-2.051,0-3.075c1.038,0,2.022,0,3.063,0c0-0.349,0-0.665,0-0.982
		c-0.001-0.559-0.001-0.559-0.569-0.559c-0.823,0-1.646,0-2.527,0c0-1.041,0-2.034,0-3.035C26.159,7.216,25.683,7.216,25.134,7.216z
		"/>
	<path fill="#FFFFFF" d="M13.867,29.338c-1.229,0.006-2.359-0.282-3.343-1.042c-1.771-1.368-1.824-3.652-0.121-5.097
		c1.754-1.489,4.814-1.678,6.718-0.39c1.117,0.755,1.751,1.807,1.648,3.184c-0.106,1.429-0.949,2.341-2.242,2.854
		c-0.406,0.161-0.838,0.274-1.268,0.352C14.801,29.281,14.331,29.294,13.867,29.338z"/>
	<path fill="#FFFFFF" d="M13.426,7.008c0.711-0.013,1.435,0.39,2.02,1.037c1.271,1.405,1.754,3.083,1.454,4.929
		c-0.293,1.804-1.812,2.603-3.514,1.918c-1.52-0.611-2.324-1.835-2.654-3.38c-0.227-1.062-0.209-2.131,0.322-3.123
		C11.515,7.527,12.212,7.01,13.426,7.008z"/>
</g>
</svg>
