<?xml version="1.0" encoding="utf-8"?>
<!-- Generator: Adobe Illustrator 17.0.1, SVG Export Plug-In . SVG Version: 6.00 Build 0)  -->
<!DOCTYPE svg PUBLIC "-//W3C//DTD SVG 1.1//EN" "http://www.w3.org/Graphics/SVG/1.1/DTD/svg11.dtd">
<svg version="1.1" id="Layer_1" xmlns="http://www.w3.org/2000/svg" xmlns:xlink="http://www.w3.org/1999/xlink" x="0px" y="0px"
	 width="27.819px" height="26.612px" viewBox="108.57 105.861 27.819 26.612" enable-background="new 108.57 105.861 27.819 26.612"
	 xml:space="preserve">
<path opacity="0.9" fill-rule="evenodd" clip-rule="evenodd" fill="#30A690" d="M110.026,105.861h24.908
	c0.801,0,1.455,0.664,1.455,1.477v23.658c0,0.812-0.655,1.476-1.455,1.476h-24.908c-0.8,0-1.456-0.664-1.456-1.476v-23.658
	C108.57,106.525,109.226,105.861,110.026,105.861 M131.562,114.658c0-2.179-2.043-4.116-4.532-4.116
	c-2.489,0-4.569,1.66-4.569,3.943c0-2.283-2.043-3.943-4.532-3.943c-2.489,0-4.532,1.937-4.532,4.116v12.763h18.164V114.658"/>
</svg>
