<?xml version="1.0" encoding="utf-8"?>
<!-- Generator: Adobe Illustrator 17.0.1, SVG Export Plug-In . SVG Version: 6.00 Build 0)  -->
<!DOCTYPE svg PUBLIC "-//W3C//DTD SVG 1.1//EN" "http://www.w3.org/Graphics/SVG/1.1/DTD/svg11.dtd">
<svg version="1.1" id="Layer_1" xmlns="http://www.w3.org/2000/svg" xmlns:xlink="http://www.w3.org/1999/xlink" x="0px" y="0px"
	 width="48.875px" height="55.144px" viewBox="0 0 48.875 55.144" enable-background="new 0 0 48.875 55.144" xml:space="preserve">
<g>
	<g>
		<path fill="#D0D2D3" d="M47.856,12.483L24.348,0.729L0.841,12.483c-3.483,36.349,23.507,42.661,23.507,42.661
			S51.338,48.832,47.856,12.483z"/>
		<path fill="#E6E6E6" d="M44.847,14.461L24.348,4.212L3.85,14.461C0.813,46.157,24.348,51.662,24.348,51.662
			S47.884,46.157,44.847,14.461z"/>
		<path fill="#F2F2F2" d="M24.206,51.662c0,0-23.535-5.504-20.498-37.201L24.206,4.212V51.662z"/>
	</g>
	<g>
		<radialGradient id="SVGID_1_" cx="24.2396" cy="21.8858" r="6.8891" gradientUnits="userSpaceOnUse">
			<stop  offset="0" style="stop-color:#FF0000"/>
			<stop  offset="1" style="stop-color:#C1272D"/>
		</radialGradient>
		<path fill="url(#SVGID_1_)" d="M19.342,29.656c-0.541,0-0.979-0.438-0.979-0.979v-9.806c0-2.667,2.554-4.756,5.815-4.756h0.306
			c3.211,0,5.633,2.044,5.633,4.756v3.733c0,0.541-0.438,0.979-0.979,0.979c-0.541,0-0.979-0.438-0.979-0.979v-3.733
			c0-1.594-1.58-2.797-3.674-2.797h-0.306c-2.126,0-3.856,1.254-3.856,2.797v9.806C20.322,29.218,19.883,29.656,19.342,29.656z"/>
		<radialGradient id="SVGID_2_" cx="24.1348" cy="31.569" r="7.3582" gradientUnits="userSpaceOnUse">
			<stop  offset="0" style="stop-color:#FF0000"/>
			<stop  offset="1" style="stop-color:#C1272D"/>
		</radialGradient>
		<path fill="url(#SVGID_2_)" d="M32.041,36.051c0,1.224-1.026,2.285-2.468,2.285H18.907c-1.442,0-2.678-1.061-2.678-2.285v-9.049
			c0-1.224,1.235-2.199,2.678-2.199h10.665c1.443,0,2.468,0.975,2.468,2.199V36.051z"/>
	</g>
	<path fill="#F2F2F2" d="M25.818,29.823c0-0.761-0.617-1.378-1.379-1.378h-0.073c-0.761,0-1.378,0.617-1.378,1.378v0.073
		c0,0.761,0.617,1.378,1.378,1.378h0.073c0.761,0,1.379-0.617,1.379-1.378V29.823z"/>
	<path fill="#F2F2F2" d="M25.056,34.321c0,0.361-0.292,0.653-0.653,0.653l0,0c-0.361,0-0.653-0.292-0.653-0.653v-3.7
		c0-0.361,0.292-0.653,0.653-0.653l0,0c0.361,0,0.653,0.292,0.653,0.653V34.321z"/>
</g>
</svg>
