<?xml version="1.0" encoding="utf-8"?>
<!-- Generator: Adobe Illustrator 17.0.1, SVG Export Plug-In . SVG Version: 6.00 Build 0)  -->
<!DOCTYPE svg PUBLIC "-//W3C//DTD SVG 1.1//EN" "http://www.w3.org/Graphics/SVG/1.1/DTD/svg11.dtd">
<svg version="1.1" id="Layer_1" xmlns="http://www.w3.org/2000/svg" xmlns:xlink="http://www.w3.org/1999/xlink" x="0px" y="0px"
	 width="36.379px" height="35.422px" viewBox="2.375 -1.587 36.379 35.422" enable-background="new 2.375 -1.587 36.379 35.422"
	 xml:space="preserve">
<path fill="#FFFFFF" d="M4.586,29.213c0-8.821,0-17.643,0-26.464C4.607,2.683,4.634,2.618,4.65,2.55
	c0.252-1.079,0.877-1.853,1.895-2.294c0.252-0.109,0.524-0.17,0.787-0.253c8.821,0,17.643,0,26.464,0
	c0.057,0.02,0.113,0.048,0.172,0.06c1.51,0.31,2.572,1.588,2.573,3.133c0.004,8.528,0.005,17.056-0.001,25.584
	c-0.001,1.764-1.412,3.175-3.176,3.176c-8.538,0.006-17.077,0.005-25.615,0c-1.508-0.001-2.788-1.068-3.098-2.541
	C4.635,29.346,4.607,29.28,4.586,29.213z M20.364,11.84c-4.488-0.317-8.165-2.208-11.121-5.674c-1.299,2.86-0.759,5.238,1.608,7.219
	c-0.016,0.031-0.032,0.063-0.047,0.094c-0.762-0.214-1.524-0.428-2.321-0.652c0.177,2.708,1.591,4.454,4.196,5.303
	c-0.374,0.075-0.74,0.139-1.108,0.151c-0.37,0.012-0.742-0.029-1.174-0.049c0.9,2.289,2.551,3.511,5.022,3.742
	c-2.36,1.774-4.954,2.489-7.834,2.238c0.021,0.046,0.024,0.07,0.037,0.078c0.086,0.058,0.173,0.116,0.262,0.168
	c3.086,1.814,6.41,2.459,9.954,2.02c3.24-0.401,6.085-1.675,8.422-3.96c3.27-3.199,4.878-7.117,4.85-11.697
	c-0.001-0.205,0.047-0.338,0.219-0.466c0.874-0.651,1.621-1.429,2.257-2.313c0.049-0.068,0.087-0.145,0.168-0.282
	c-0.983,0.399-1.917,0.682-2.913,0.77c1.045-0.728,1.801-1.664,2.229-2.934c-1.025,0.589-2.045,0.99-3.124,1.247
	c-0.218,0.052-0.357,0.003-0.523-0.147c-1.579-1.433-3.411-1.887-5.434-1.211c-2.02,0.675-3.25,2.124-3.607,4.23
	C20.268,10.389,20.364,11.097,20.364,11.84z"/>
</svg>
