<?xml version="1.0" encoding="UTF-8" standalone="no"?>
<!DOCTYPE svg  PUBLIC '-//W3C//DTD SVG 1.1//EN'  'http://www.w3.org/Graphics/SVG/1.1/DTD/svg11.dtd'>
<svg xmlns="http://www.w3.org/2000/svg">
<defs>
<font id="FrutigerCE-Roman" horiz-adv-x="556">
<font-face underline-position="-75" font-weight="400" descent="-200" panose-1="2 0 5 3 4 0 0 2 0 4" units-per-em="1000" unicode-range="U+0020-25CA" bbox="-31 -222 998 885" x-height="510" underline-thickness="50" font-family="FrutigerCE" ascent="800" cap-height="698"/>
<missing-glyph horiz-adv-x="1000"/>
<glyph glyph-name=".notdef" horiz-adv-x="1000"/>
<glyph glyph-name=".null" horiz-adv-x="0"/>
<glyph glyph-name="nonmarkingreturn" horiz-adv-x="333"/>
<glyph glyph-name="space" horiz-adv-x="278" unicode=" "/>
<glyph glyph-name="space" horiz-adv-x="278" unicode=" "/>
<glyph glyph-name="exclam" horiz-adv-x="389" unicode="!" d="M139 0v112h112v-112h-112zM251 698l-13 -502h-86l-13 502h112z"/>
<glyph glyph-name="quotedbl" d="M159 453v245h88v-245h-88zM309 453v245h88v-245h-88z" unicode='&quot;'/>
<glyph glyph-name="numbersign" d="M328 284l18 130h-118l-18 -130h118zM94 0l29 208h-95v76h106l18 130h-96v76h107l29 208h76l-29 -208h118l29 208h76l-29 -208h95v-76h-106l-18 -130h95v-76h-106l-29 -208h-76l29 208h-118l-29 -208h-76z" unicode="#"/>
<glyph glyph-name="dollar" d="M247 -106v94h-12q-45 0 -81 8t-71 21l12 96q28 -21 61 -29t77 -8h14v243l-34 17q-29 15 -55 32q-26 16 -44 38t-28 50t-11 64q-1 38 13 70t37 55t55 39t67 22v100h58v-96q76 -2 143 -25l-14 -92q-49 29 -119 29h-10v-217l58 -32q28 -15 50 -32t37 -38t23 -47t8 -61 q-1 -41 -13 -75t-35 -60t-55 -43t-73 -23v-100h-58zM305 290v-203q32 10 51 39t19 63q0 41 -20 63t-50 38zM247 435v179q-32 -12 -49 -32t-17 -59q0 -33 21 -53t45 -35z" unicode="$"/>
<glyph glyph-name="percent" horiz-adv-x="1000" unicode="%" d="M247 -22l433 742h72l-433 -742h-72zM740 -12q-43 0 -72 17t-46 45q-16 28 -24 64t-8 74q0 40 6 76t24 64q16 28 45 44t75 16q44 0 74 -16t46 -44t24 -64q6 -36 6 -76q0 -38 -8 -74t-24 -64q-17 -28 -46 -45t-72 -17zM740 58q22 0 34 14t19 36q5 20 7 42t2 38v40t-6 42 t-18 34t-38 14q-24 0 -36 -14t-18 -36q-6 -20 -7 -42t-1 -38t1 -38t7 -42t18 -36q12 -14 36 -14zM260 380q22 0 34 14t19 36q5 20 7 42t2 38v40t-6 42t-18 34t-38 14q-24 0 -36 -14t-18 -36q-6 -20 -7 -42t-1 -38t1 -38t7 -42t18 -36q12 -14 36 -14zM260 310q-43 0 -72 17 t-46 45q-16 28 -24 64t-8 74q0 40 6 76t24 64q16 28 45 44t75 16q44 0 74 -16t46 -44t24 -64q6 -36 6 -76q0 -38 -8 -74t-24 -64q-17 -28 -46 -45t-72 -17z"/>
<glyph glyph-name="ampersand" horiz-adv-x="722" unicode="&amp;" d="M261 544q-1 -35 19 -64t43 -54q16 7 34 19q18 11 34 27q17 16 27 35t10 41q0 48 -24 67t-59 19t-59 -22t-25 -68zM189 190q-1 -29 11 -52q12 -24 30 -40t44 -25q25 -9 52 -9q24 0 44 7t37 17q16 10 28 22t20 21l-168 197q-19 -14 -37 -28t-32 -29t-21 -35q-8 -20 -8 -46z M554 377h94q-2 -43 -10 -77t-18 -62t-24 -53q-13 -24 -28 -47l122 -138h-125l-57 68q-38 -44 -86 -62t-114 -18q-52 0 -94 14t-70 40q-30 26 -46 61q-16 36 -15 80q1 79 43 127t113 77q-28 33 -50 71t-22 88q1 42 15 73t38 51t58 30q33 10 71 10q33 0 65 -9t56 -29t38 -49 q14 -30 14 -71q0 -33 -14 -61t-35 -51q-22 -22 -49 -40t-55 -30l142 -162q19 32 29 70t14 99z"/>
<glyph glyph-name="quotesingle" horiz-adv-x="278" unicode="&apos;" d="M95 453v245h88v-245h-88z"/>
<glyph glyph-name="parenleft" horiz-adv-x="333" unicode="(" d="M319 -140h-90q-34 52 -64 104t-52 108t-35 114q-13 59 -13 122q0 64 13 122q14 58 36 114t52 108t63 104h90q-29 -51 -57 -105t-49 -110q-22 -57 -35 -115t-13 -118t13 -118t34 -116q21 -56 49 -110t58 -104z"/>
<glyph glyph-name="parenright" horiz-adv-x="333" unicode=")" d="M14 756h90q34 -51 64 -104q30 -52 52 -108t35 -114t13 -122t-13 -122t-35 -114t-52 -108t-64 -104h-90q28 51 56 105t50 110q22 57 35 115t13 118t-13 118t-34 116q-21 56 -49 110t-58 104z"/>
<glyph glyph-name="asterisk" d="M359 310l-81 138l-82 -138l-74 50l110 123l-160 33l28 85l151 -62l-16 159h91l-15 -159l146 62l27 -85l-157 -33l107 -123z" unicode="*"/>
<glyph glyph-name="plus" horiz-adv-x="600" unicode="+" d="M47 209v88h209v209h88v-209h209v-88h-209v-209h-88v209h-209z"/>
<glyph glyph-name="comma" horiz-adv-x="278" unicode="," d="M20 -133l63 245h112l-85 -245h-90z"/>
<glyph glyph-name="hyphen" horiz-adv-x="333" unicode="-" d="M38 231v76h257v-76h-257z"/>
<glyph glyph-name="hyphen" horiz-adv-x="333" unicode="­" d="M38 231v76h257v-76h-257z"/>
<glyph glyph-name="period" horiz-adv-x="278" unicode="." d="M83 0v112h112v-112h-112z"/>
<glyph glyph-name="slash" horiz-adv-x="278" unicode="/" d="M-25 -12l240 722h88l-240 -722h-88z"/>
<glyph glyph-name="zero" d="M147 349q-1 -22 1 -51t6 -60t14 -61q8 -30 22 -54q14 -25 36 -39t52 -14t52 14t36 39q14 24 22 54t14 61q4 31 6 60t1 51q-1 33 -5 81t-18 92t-39 75q-26 31 -69 31t-69 -31q-25 -31 -39 -75t-18 -92t-5 -81zM41 349q0 57 10 121t36 117q27 53 73 88t118 35t118 -35 t73 -88q26 -53 36 -117t10 -121t-10 -121t-36 -117q-27 -53 -73 -88t-118 -35t-118 35t-73 88q-26 53 -36 117t-10 121z" unicode="0"/>
<glyph glyph-name="one" d="M269 0v583l-107 -92l-53 67l171 140h89v-698h-100z" unicode="1"/>
<glyph glyph-name="two" d="M50 0v107q28 25 60 53t65 59q29 27 64 61t65 72t52 81q20 42 20 84q0 25 -10 45t-29 35t-43 23t-52 8q-47 0 -89 -14t-71 -31l-10 86q44 19 90 30t93 11t89 -12t72 -38q30 -24 48 -62t18 -87q0 -44 -20 -88t-52 -85q-31 -41 -66 -78t-64 -66t-63 -59t-60 -53h335v-82 h-442z" unicode="2"/>
<glyph glyph-name="three" d="M145 322v82h56q27 0 57 6t56 18q26 13 43 35t17 55q0 30 -11 51t-30 34t-44 19t-52 6q-47 0 -85 -11t-70 -27l-6 89q34 13 82 22t93 9t87 -11t74 -35t50 -59q18 -36 18 -85q0 -33 -12 -60t-33 -47t-48 -33t-57 -19v-2q70 -14 113 -56t43 -117q0 -60 -24 -98t-62 -61 t-88 -31t-101 -8q-43 0 -85 8t-75 19l6 93q27 -14 67 -26t86 -12q28 0 58 6t56 20q24 14 40 37t16 56q0 39 -14 65t-39 40q-23 16 -55 22t-66 6h-61z" unicode="3"/>
<glyph glyph-name="four" d="M344 0v159h-325v82l282 457h143v-457h88v-82h-88v-159h-100zM344 241v375h-2l-218 -375h220z" unicode="4"/>
<glyph glyph-name="five" d="M478 698v-82h-290l-6 -187q14 4 37 7t53 3q46 -1 87 -17t72 -44t49 -69q18 -40 18 -86q0 -57 -22 -101t-58 -74t-84 -45t-103 -15q-57 0 -94 8t-56 15l3 94q32 -19 66 -27t79 -8q31 0 61 9t52 27t36 43q14 26 14 59q0 37 -13 65t-36 47t-54 28t-66 9q-45 0 -76 -7 t-59 -19l6 367h384z" unicode="5"/>
<glyph glyph-name="six" d="M405 217q0 24 -7 49q-8 26 -22 46t-36 32t-52 13q-32 0 -56 -11t-40 -30q-16 -18 -26 -44q-8 -26 -8 -55q0 -25 8 -51t22 -48q16 -22 39 -34q23 -14 54 -14t55 12t38 34q16 20 24 46t7 55zM479 688l-14 -89q-55 29 -124 29q-49 0 -85 -21t-60 -56t-37 -81 q-12 -46 -13 -96l2 1q35 35 72 49t81 15q51 0 90 -17q39 -16 65 -46t41 -70q14 -40 14 -87q0 -54 -17 -97q-17 -42 -47 -72t-71 -46t-89 -16q-73 0 -119 30t-72 78t-34 108q-10 60 -10 119q0 71 13 141t45 124t88 88q54 34 137 34q18 0 39 -2q22 -2 42 -5t37 -7t26 -8z" unicode="6"/>
<glyph glyph-name="seven" d="M491 698v-82l-258 -616h-110l266 616h-340v82h442z" unicode="7"/>
<glyph glyph-name="eight" d="M155 529q1 -36 37 -64t107 -63q31 24 49 42t28 32q10 16 12 31q3 15 3 33q1 26 -11 42t-30 26t-38 16q-20 4 -39 4q-17 0 -37 -6t-39 -18q-18 -12 -30 -32q-12 -18 -12 -43zM412 180v5q0 33 -12 55q-13 22 -35 38q-21 16 -49 27t-56 25q-21 -16 -42 -28q-22 -12 -38 -27 t-26 -35t-10 -51q0 -29 12 -51t32 -37t46 -23t51 -8q51 0 88 28t39 82zM276 -12q-44 0 -87 12t-77 38q-34 24 -54 60t-20 85q0 70 42 116t106 68v2q-38 13 -64 33t-40 43q-15 23 -21 48t-6 50q-1 33 15 63t45 54q29 22 71 36t95 14q52 0 92 -14q39 -14 67 -36t42 -50t15 -57 q-1 -29 -7 -54t-21 -47t-39 -40q-24 -20 -59 -39q63 -23 105 -69t42 -116q0 -52 -20 -90t-52 -62q-33 -24 -77 -36t-93 -12z" unicode="8"/>
<glyph glyph-name="nine" d="M151 481q0 -24 7 -49q8 -26 22 -46t36 -32t52 -13q32 0 56 11t40 30q16 18 26 44q8 26 8 55q0 25 -8 51t-22 48q-16 22 -39 34q-23 14 -54 14q-32 0 -55 -12q-22 -12 -38 -34q-16 -20 -24 -46t-7 -55zM77 10l14 89q55 -29 124 -29q49 0 85 21t60 56t37 81q12 46 13 96 l-2 -1q-35 -35 -72 -49t-81 -15q-51 0 -90 17q-39 16 -65 46t-41 70q-14 40 -14 87q0 54 17 97q17 42 47 72t71 46t89 16q73 0 119 -30t72 -78t34 -108q10 -60 10 -119q0 -71 -13 -141t-45 -124t-88 -88q-54 -34 -137 -34q-18 0 -39 2q-22 2 -42 5t-37 7t-26 8z" unicode="9"/>
<glyph glyph-name="colon" horiz-adv-x="278" unicode=":" d="M83 0v112h112v-112h-112zM195 510v-112h-112v112h112z"/>
<glyph glyph-name="less" horiz-adv-x="600" unicode="&lt;" d="M554 514v-88l-394 -173l394 -173v-88l-508 223v76z"/>
<glyph glyph-name="equal" horiz-adv-x="600" unicode="=" d="M47 104v88h506v-88h-506zM47 314v88h506v-88h-506z"/>
<glyph glyph-name="greater" horiz-adv-x="600" unicode="&gt;" d="M46 -8v88l394 173l-394 173v88l508 -223v-76z"/>
<glyph glyph-name="question" horiz-adv-x="500" unicode="?" d="M195 0v112h112v-112h-112zM204 196v21q0 25 3 43t11 35t18 33q12 16 30 38q13 16 28 33q16 17 28 36t20 41t8 45q0 26 -10 45q-10 20 -27 32t-39 18t-45 6q-51 0 -87 -11t-61 -29l-7 95q33 13 74 23t92 10q41 0 80 -12t69 -34q31 -23 49 -57t18 -79q0 -38 -14 -70 t-34 -60t-45 -54q-24 -27 -44 -57q-13 -18 -17 -35t-4 -38v-18h-94z"/>
<glyph glyph-name="at" horiz-adv-x="800" unicode="@" d="M615 532l-67 -254q-4 -11 -6 -22t-2 -20q1 -11 4 -18t14 -7q22 0 44 15q22 14 38 40q18 26 29 60t11 72q0 58 -21 104t-57 76t-84 46t-103 16q-63 0 -115 -22t-90 -63q-38 -39 -58 -93t-20 -115q0 -71 22 -125t61 -90t93 -56q54 -18 117 -18t121 24t96 65h76 q-50 -75 -128 -117t-169 -42q-77 0 -145 24t-118 70t-79 114q-29 67 -29 153q0 83 29 149t79 113t116 73t142 26q66 0 126 -22t107 -60q45 -39 73 -94t28 -121q0 -71 -26 -123t-64 -88q-37 -34 -78 -50t-69 -17q-23 0 -39 14t-19 42h-2q-20 -21 -49 -39t-60 -17 q-31 0 -58 13q-27 12 -47 34q-19 22 -31 51t-12 62q0 47 16 92t43 81t67 56q40 22 89 22q35 0 63 -16t51 -50l15 52h75zM366 217q28 -1 52 15t40 40t26 53t10 55q0 36 -22 60t-55 24q-31 0 -55 -14t-42 -38q-18 -22 -26 -50q-10 -28 -10 -54q0 -40 22 -66t60 -25z"/>
<glyph glyph-name="A" horiz-adv-x="722" unicode="A" d="M498 258l-139 346l-139 -346h278zM12 0l298 698h105l295 -698h-109l-71 176h-342l-71 -176h-105z"/>
<glyph glyph-name="B" horiz-adv-x="611" unicode="B" d="M183 616v-216h55q36 0 68 3t58 15q24 12 38 33q14 22 15 61q0 31 -12 51t-31 32q-20 13 -42 17t-44 4h-105zM183 318v-236h75q34 0 65 4t55 18q24 12 37 34q14 22 14 57q0 41 -16 65t-42 37q-27 13 -59 17t-64 4h-65zM83 0v698h189q54 0 100 -10t77 -30q32 -20 50 -54 t18 -82q0 -72 -39 -110t-105 -56v-2q35 -3 65 -16q30 -12 52 -34t33 -52q12 -30 12 -66q1 -56 -21 -92t-58 -57t-86 -29q-48 -8 -101 -8h-186z"/>
<glyph glyph-name="C" horiz-adv-x="611" unicode="C" d="M579 680l-8 -97q-66 39 -144 39q-59 0 -109 -20t-86 -58q-36 -36 -54 -86q-19 -50 -19 -109q1 -62 21 -112t56 -86q36 -35 84 -55t102 -20q19 0 40 2q22 2 42 8q20 4 38 10t32 14l6 -97q-40 -17 -84 -21t-75 -4q-83 0 -151 26t-116 72q-48 48 -74 116t-27 150 q-1 81 27 147t78 113q50 46 116 72q68 26 148 26q41 0 80 -6t77 -24z"/>
<glyph glyph-name="D" horiz-adv-x="722" unicode="D" d="M183 610v-522h105q129 0 198 64t69 199q1 61 -19 109t-54 82t-82 50q-46 18 -100 18h-117zM83 0v698h206q77 0 145 -24t118 -67t80 -107q29 -64 29 -145q0 -89 -26 -155t-74 -110t-117 -68q-69 -22 -155 -22h-206z"/>
<glyph glyph-name="E" d="M94 0v698h391v-88h-291v-204h265v-88h-265v-230h291v-88h-391z" unicode="E"/>
<glyph glyph-name="F" horiz-adv-x="500" unicode="F" d="M83 0v698h371v-88h-271v-204h259v-88h-259v-318h-100z"/>
<glyph glyph-name="G" horiz-adv-x="722" unicode="G" d="M627 675l-8 -101q-37 24 -81 36t-111 12q-59 0 -109 -20t-86 -58q-36 -37 -54 -87q-19 -50 -19 -108q1 -62 21 -112t56 -86q36 -35 84 -55t102 -20q26 0 43 1t29 3t22 4l18 4v212h-147v82h247v-363q-29 -11 -80 -21t-133 -10q-83 0 -151 26t-116 72q-48 48 -74 116 t-27 150q-1 81 27 147t78 113q50 46 116 72q68 26 148 26q38 0 67 -2t52 -8t43 -12t43 -13z"/>
<glyph glyph-name="H" horiz-adv-x="722" unicode="H" d="M94 0v698h100v-292h334v292h100v-698h-100v318h-334v-318h-100z"/>
<glyph glyph-name="I" horiz-adv-x="278" unicode="I" d="M89 0v698h100v-698h-100z"/>
<glyph glyph-name="J" horiz-adv-x="389" unicode="J" d="M21 0v86q17 -6 33 -8t30 -2q34 0 56 10t35 26q13 18 18 43t5 57v486h100v-518q0 -38 -10 -72t-32 -61t-60 -43t-94 -16q-50 0 -81 12z"/>
<glyph glyph-name="K" horiz-adv-x="667" unicode="K" d="M94 0v698h100v-307l298 307h133l-328 -330l354 -368h-146l-311 342v-342h-100z"/>
<glyph glyph-name="L" horiz-adv-x="500" unicode="L" d="M88 0v698h100v-610h292v-88h-392z"/>
<glyph glyph-name="M" horiz-adv-x="944" unicode="M" d="M90 0v698h165l219 -580l215 580h165v-698h-100v604h-2l-231 -604h-98l-231 604h-2v-604h-100z"/>
<glyph glyph-name="N" horiz-adv-x="722" unicode="N" d="M88 0v698h136l308 -562h2v562h100v-698h-128l-316 574h-2v-574h-100z"/>
<glyph glyph-name="O" horiz-adv-x="778" unicode="O" d="M53 349q1 78 23 144t66 114q44 47 105 75q62 28 142 28q79 0 141 -28t106 -75q44 -48 66 -114t23 -144q-1 -80 -23 -146t-65 -114q-43 -49 -105 -75t-143 -26t-143 26t-105 75q-43 48 -65 114t-23 146zM159 349q-1 -52 13 -101q14 -50 42 -88t72 -61t103 -23t103 23 t72 61t42 88q14 49 13 101q-1 53 -15 103t-42 87q-28 39 -72 61q-43 22 -101 22t-101 -22q-44 -22 -72 -61q-28 -37 -42 -87t-15 -103z"/>
<glyph glyph-name="P" d="M83 0v698h183q54 0 102 -10t82 -35q36 -24 57 -64t21 -100q0 -58 -21 -98t-55 -65t-80 -36q-44 -11 -91 -11h-98v-279h-100zM183 610v-243h99q23 1 48 7q26 6 46 20t33 38t13 58q0 33 -16 56t-38 37q-23 15 -50 21t-50 6h-85z" unicode="P"/>
<glyph glyph-name="Q" horiz-adv-x="778" unicode="Q" d="M575 -129l-130 121q-7 -2 -13 -2t-13 -1t-14 -1h-16q-81 0 -143 26t-105 75q-43 48 -65 114t-23 146q1 78 23 144t66 114q44 47 105 75q62 28 142 28q79 0 141 -28t106 -75q44 -48 66 -114t23 -144q-1 -119 -49 -205t-139 -126l162 -147h-124zM159 349q-1 -52 13 -101 q14 -50 42 -88t72 -61t103 -23t103 23t72 61t42 88q14 49 13 101q-1 53 -15 103t-42 87q-28 39 -72 61q-43 22 -101 22t-101 -22q-44 -22 -72 -61q-28 -37 -42 -87t-15 -103z"/>
<glyph glyph-name="R" horiz-adv-x="611" unicode="R" d="M183 610v-212h85q72 0 112 29t39 80q1 47 -35 75t-105 28h-96zM83 0v698h171q52 0 100 -6t87 -26q38 -20 61 -57t23 -100q0 -32 -11 -59q-10 -28 -30 -48t-46 -34t-57 -18v-2q23 -10 37 -24t31 -46l132 -278h-114l-107 242q-12 25 -24 39q-12 15 -26 21t-30 7t-37 1h-60 v-310h-100z"/>
<glyph glyph-name="S" horiz-adv-x="500" unicode="S" d="M420 685l-14 -92q-18 7 -34 13t-31 9t-31 5t-35 2q-21 0 -43 -4t-39 -16q-18 -10 -29 -28t-11 -45q0 -33 22 -55q21 -22 55 -40t73 -36t73 -43q34 -26 55 -64q22 -38 22 -95q0 -56 -20 -96t-55 -64q-36 -24 -82 -36t-98 -12q-36 0 -72 9t-71 20l10 93q13 -5 30 -11 t36 -11q19 -4 39 -8t40 -4q22 0 46 6t44 20t34 36t13 52q0 40 -22 64q-21 24 -55 42t-73 36q-39 16 -73 40t-55 59q-22 35 -22 89q-1 46 17 82t48 59q30 25 71 37t88 12q35 0 74 -6t75 -19z"/>
<glyph glyph-name="T" d="M228 0v610h-217v88h534v-88h-217v-610h-100z" unicode="T"/>
<glyph glyph-name="U" horiz-adv-x="722" unicode="U" d="M632 698v-409q0 -149 -70 -225t-201 -76t-201 76t-70 225v409h100v-396q0 -50 8 -92t29 -71q20 -31 53 -47t81 -16t81 16t53 47q21 29 29 71t8 92v396h100z"/>
<glyph glyph-name="V" horiz-adv-x="667" unicode="V" d="M661 698l-267 -698h-125l-263 698h112l215 -610h2l221 610h105z"/>
<glyph glyph-name="W" horiz-adv-x="1000" unicode="W" d="M213 0l-211 698h110l167 -598h2l149 598h142l151 -598h2l167 598h106l-215 -698h-129l-152 610h-2l-153 -610h-134z"/>
<glyph glyph-name="X" horiz-adv-x="667" unicode="X" d="M8 0l257 363l-234 335h120l186 -268l185 268h114l-235 -333l258 -365h-126l-206 296l-199 -296h-120z"/>
<glyph glyph-name="Y" horiz-adv-x="667" unicode="Y" d="M284 0v292l-273 406h117l208 -313l203 313h117l-272 -406v-292h-100z"/>
<glyph glyph-name="Z" d="M32 0v90l362 520h-350v88h465v-90l-361 -520h367v-88h-483z" unicode="Z"/>
<glyph glyph-name="bracketleft" horiz-adv-x="333" unicode="[" d="M95 -140v896h189v-70h-101v-756h101v-70h-189z"/>
<glyph glyph-name="backslash" horiz-adv-x="278" unicode="\" d="M215 -12l-240 722h88l240 -722h-88z"/>
<glyph glyph-name="bracketright" horiz-adv-x="333" unicode="]" d="M238 756v-896h-189v70h101v756h-101v70h189z"/>
<glyph glyph-name="asciicircum" horiz-adv-x="600" unicode="^" d="M60 294l199 404h82l199 -404h-90l-150 312l-150 -312h-90z"/>
<glyph glyph-name="underscore" horiz-adv-x="500" unicode="_" d="M0 -125v50h500v-50h-500z"/>
<glyph glyph-name="grave" horiz-adv-x="278" unicode="`" d="M116 735l89 -144h-67l-131 144h109z"/>
<glyph glyph-name="a" d="M383 198v45q-15 0 -30 1t-30 1q-19 -1 -49 -3t-58 -12t-50 -30q-20 -20 -20 -53q0 -19 9 -35t23 -26t30 -16q17 -6 33 -6q70 0 106 38t36 96zM109 394l-5 80q35 20 77 34t91 14q110 0 158 -53t47 -158v-211q0 -44 1 -66t3 -34h-88v66h-2q-8 -12 -22 -26q-13 -14 -33 -24 q-20 -12 -46 -20t-57 -8q-41 0 -75 9t-60 29q-24 20 -38 49q-14 30 -14 72q0 48 24 80q24 31 58 51q35 20 77 28t78 9h50t50 -2q1 65 -27 99t-99 34q-39 0 -79 -14t-69 -38z" unicode="a"/>
<glyph glyph-name="b" horiz-adv-x="611" unicode="b" d="M465 257v8q-1 30 -7 60q-8 34 -24 61q-17 28 -44 44t-65 16q-39 0 -67 -16t-47 -44t-28 -62t-9 -70q0 -32 8 -66t27 -61t47 -45t68 -18q38 0 65 19t44 47t25 63q7 30 7 57v7zM80 0v750h94v-310h2q22 34 62 58t107 24q55 0 97 -21t68 -57q28 -36 42 -82q14 -47 13 -98 q-1 -52 -13 -102t-38 -88t-68 -62t-100 -24q-34 0 -62 8t-50 20t-38 27t-24 29h-2v-72h-90z"/>
<glyph glyph-name="c" horiz-adv-x="444" unicode="c" d="M412 502l-8 -78q-27 10 -53 16t-49 6q-40 0 -70 -16t-51 -43t-32 -61t-11 -71q0 -34 10 -68q10 -33 30 -61t52 -45t78 -17q24 0 52 8t49 21l7 -84q-28 -13 -60 -17t-58 -4q-58 0 -106 21t-82 57t-53 86q-19 48 -19 103q0 58 18 107q18 48 54 84q34 36 82 56t106 20 q30 0 62 -6t52 -14z"/>
<glyph glyph-name="d" horiz-adv-x="611" unicode="d" d="M286 446q-38 0 -65 -16t-44 -44q-17 -26 -25 -60t-8 -69q0 -30 8 -64q8 -35 26 -63t44 -47q27 -19 65 -19q41 0 69 18t46 45t26 61t9 66q1 36 -9 70t-28 62t-48 44q-28 16 -66 16zM441 0v72h-2q-9 -14 -25 -29t-38 -27t-49 -20q-28 -8 -62 -8q-57 0 -99 24t-68 62t-40 88 q-12 50 -12 102q0 51 14 98q14 46 40 82q28 36 69 57t97 21q67 0 107 -24t62 -58h2v310h94v-750h-90z"/>
<glyph glyph-name="e" d="M146 304h264q0 29 -8 55q-8 25 -25 45q-16 20 -40 31t-54 11q-35 0 -59 -13t-42 -33q-16 -20 -24 -46q-8 -25 -12 -50zM471 115v-94q-14 -5 -29 -11q-16 -6 -34 -10t-42 -8t-56 -4q-68 0 -118 20t-82 56t-48 87t-16 113q0 57 17 104q17 48 49 82t75 53q44 19 98 19 q64 0 107 -22t69 -60q25 -38 37 -92q12 -53 12 -114h-364q0 -38 14 -69t36 -53q24 -22 54 -36q30 -12 64 -12q24 0 48 6t46 12q22 8 38 17t25 16z" unicode="e"/>
<glyph glyph-name="f" horiz-adv-x="389" unicode="f" d="M141 0v434h-120v76h120v47q0 46 7 84t26 65q18 28 52 42t86 14q18 0 34 -2t29 -4l-4 -76q-9 2 -21 4t-24 2q-30 0 -48 -9t-28 -25t-12 -39q-3 -22 -3 -48v-55h135v-76h-135v-434h-94z"/>
<glyph glyph-name="g" horiz-adv-x="611" unicode="g" d="M288 76q32 0 60 14t48 36q20 24 30 56q11 32 11 67q0 39 -9 75t-28 63t-47 43t-65 16q-36 0 -62 -18t-44 -44q-18 -28 -27 -62t-9 -66q0 -36 10 -68t28 -58t44 -40t60 -14zM531 510v-488q0 -116 -63 -180t-200 -64q-20 0 -40 2t-41 5q-23 5 -47 11t-55 17l10 87 q27 -12 49 -21t44 -15q21 -6 43 -8t48 -2q75 0 117 47t41 128v50h-2q-30 -39 -76 -59t-95 -20q-55 0 -96 20t-68 56q-26 35 -40 80t-14 95q0 49 14 97t42 88q28 38 72 62q42 24 100 24q68 0 108 -23t60 -65h2v76h87z"/>
<glyph glyph-name="h" horiz-adv-x="611" unicode="h" d="M80 0v750h94v-313h2q26 41 68 63t96 22q99 0 145 -58t46 -161v-303h-94v264q0 90 -23 134t-85 48q-39 0 -69 -16t-49 -42q-19 -28 -28 -67t-9 -85v-236h-94z"/>
<glyph glyph-name="i" horiz-adv-x="278" unicode="i" d="M192 720v-106h-106v106h106zM92 0v510h94v-510h-94z"/>
<glyph glyph-name="j" horiz-adv-x="278" unicode="j" d="M192 720v-106h-106v106h106zM-16 -218l3 81q9 -3 17 -3h21q33 0 50 29t17 79v542h94v-528q0 -28 -2 -63t-17 -67q-14 -32 -43 -52q-29 -22 -82 -22q-16 0 -32 1t-26 3z"/>
<glyph glyph-name="k" d="M80 0v750h94v-447l205 207h128l-237 -226l267 -284h-135l-228 262v-262h-94z" unicode="k"/>
<glyph glyph-name="l" horiz-adv-x="278" unicode="l" d="M92 0v750h94v-750h-94z"/>
<glyph glyph-name="m" horiz-adv-x="889" unicode="m" d="M79 0v510h88v-74h2q27 46 66 66t96 20q45 0 85 -24t60 -75q13 27 33 46t42 31t44 17t39 5q48 0 82 -15t55 -41t31 -62t9 -77v-327h-94v304q1 24 -3 49t-14 45t-28 34t-46 14q-36 0 -62 -16t-41 -42t-23 -61q-8 -34 -8 -70v-257h-94v304q0 24 -4 49t-13 45q-10 20 -28 34 t-46 14q-35 0 -61 -16t-42 -42t-24 -61q-8 -34 -7 -70v-257h-94z"/>
<glyph glyph-name="n" horiz-adv-x="611" unicode="n" d="M80 0v510h91v-81h2q21 45 67 69t100 24q99 0 145 -58t46 -161v-303h-94v264q0 90 -23 134t-85 48q-39 0 -69 -16t-49 -42q-19 -28 -28 -67t-9 -85v-236h-94z"/>
<glyph glyph-name="o" horiz-adv-x="611" unicode="o" d="M146 255q0 -34 10 -68q10 -33 28 -61q20 -28 50 -45t72 -17q41 0 71 17q29 17 49 45t30 61q10 34 9 68q0 37 -11 71t-31 61t-50 43t-67 16q-38 0 -68 -16t-50 -43t-31 -61t-11 -71zM46 255q0 58 18 107q18 48 54 84q34 36 82 56t106 20t106 -20t82 -56t52 -84 q18 -49 19 -107q0 -55 -19 -103t-53 -86q-34 -36 -82 -57t-105 -21q-58 0 -106 21t-82 57t-53 86q-19 48 -19 103z"/>
<glyph glyph-name="p" horiz-adv-x="611" unicode="p" d="M465 257v8q-1 30 -7 60q-8 34 -24 61q-17 28 -44 44t-65 16q-39 0 -67 -16t-47 -44t-28 -62t-9 -70q0 -32 8 -66t27 -61t47 -45t68 -18q38 0 65 19t44 47t25 63q7 30 7 57v7zM80 -210v720h90v-72h2q8 14 24 29t38 27t50 20t61 8q55 0 97 -21t68 -57q28 -36 42 -82 q14 -47 13 -98q-1 -52 -13 -102t-38 -88t-68 -62t-100 -24q-68 0 -108 24t-62 58h-2v-280h-94z"/>
<glyph glyph-name="q" horiz-adv-x="611" unicode="q" d="M146 257v-7q0 -27 7 -57q8 -35 25 -63t44 -47t65 -19q41 0 69 18t46 45t26 61t9 66q1 36 -9 70t-28 62t-48 44q-28 16 -66 16t-65 -16t-44 -44q-17 -26 -25 -60q-7 -30 -6 -61v-8zM531 510v-720h-94v277h-2q-21 -35 -67 -57t-103 -22t-99 24t-68 62t-40 88 q-12 50 -12 102q0 51 14 98q14 46 40 82q28 36 69 57t97 21q34 0 62 -8t49 -20t37 -27t25 -30h2v73h90z"/>
<glyph glyph-name="r" horiz-adv-x="389" unicode="r" d="M80 0v510h88v-79h2q20 39 56 65t77 26q21 0 34 -2t28 -5v-84q-13 5 -27 7t-25 2q-63 0 -101 -56t-38 -152v-232h-94z"/>
<glyph glyph-name="s" horiz-adv-x="389" unicode="s" d="M37 16l5 84q14 -9 30 -16q16 -8 32 -12t30 -6t25 -2q16 0 33 4t31 12t23 22t9 35q-1 23 -17 39t-40 30t-54 26q-28 13 -52 31t-42 42q-16 24 -16 60q0 39 14 69t38 50t57 28q33 10 71 10q33 0 61 -6t56 -14l-8 -82q-7 6 -21 10l-28 8t-28 6t-22 2q-36 0 -63 -15t-27 -47 q0 -26 16 -42t42 -30q24 -12 52 -24t54 -30q24 -18 40 -44t17 -67q0 -41 -15 -71t-40 -50t-57 -28q-32 -10 -66 -10q-36 0 -72 6t-68 22z"/>
<glyph glyph-name="t" horiz-adv-x="389" unicode="t" d="M351 510v-76h-135v-279q0 -45 24 -68t55 -23q21 0 37 6t27 12v-80q-17 -6 -37 -10t-43 -4q-73 0 -115 36t-42 112v298h-115v76h115v118l94 30v-148h135z"/>
<glyph glyph-name="u" horiz-adv-x="611" unicode="u" d="M531 510v-510h-91v81h-2q-21 -45 -67 -69t-100 -24q-99 0 -145 58t-46 161v303h94v-264q0 -90 23 -134t85 -48q40 0 70 16t48 42q19 28 28 66t9 86v236h94z"/>
<glyph glyph-name="v" horiz-adv-x="500" unicode="v" d="M489 510l-183 -510h-112l-183 510h103l138 -416h2l141 416h94z"/>
<glyph glyph-name="w" horiz-adv-x="833" unicode="w" d="M821 510l-164 -510h-109l-132 428h-2l-129 -428h-109l-164 510h103l117 -422h2l130 422h111l128 -422h2l124 422h92z"/>
<glyph glyph-name="x" horiz-adv-x="500" unicode="x" d="M10 0l184 267l-166 243h117l111 -182l113 182h105l-164 -243l180 -267h-116l-126 200l-126 -200h-112z"/>
<glyph glyph-name="y" horiz-adv-x="500" unicode="y" d="M36 -215l6 77q8 -4 20 -6t24 -2q30 0 52 18t36 42q14 22 18 42q6 20 6 24q0 8 -6 24t-12 30l-173 476h103l137 -422h2l140 422h95l-188 -521q-13 -37 -28 -75q-14 -38 -36 -68t-54 -49t-78 -19q-23 0 -37 2t-27 5z"/>
<glyph glyph-name="z" horiz-adv-x="500" unicode="z" d="M43 0v82l294 352h-280v76h389v-82l-294 -352h305v-76h-414z"/>
<glyph glyph-name="braceleft" horiz-adv-x="333" unicode="{" d="M314 756v-70h-53q-15 0 -25 -6t-16 -18q-6 -10 -7 -24q-2 -14 -2 -28v-181q-1 -33 -11 -55t-25 -36t-31 -20t-25 -9v-2q9 -1 25 -7t31 -20t25 -36q10 -24 11 -60v-178q0 -14 2 -28q1 -14 7 -24q6 -12 16 -18t25 -6h53v-70h-78q-18 0 -38 8t-36 24t-28 40q-11 24 -11 54 v182q0 25 -8 45t-20 33q-11 13 -27 20t-31 7v70q15 0 31 7q16 8 27 20q12 12 20 30t8 43v187q0 30 11 54q12 24 28 40t36 24t38 8h78z"/>
<glyph glyph-name="bar" horiz-adv-x="222" unicode="|" d="M67 -214v1000h88v-1000h-88z"/>
<glyph glyph-name="braceright" horiz-adv-x="333" unicode="}" d="M19 -140v70h53q15 0 25 6q9 6 15 18q6 10 8 24t2 28v181q0 33 10 55t26 36q14 14 30 20t26 9v2q-10 1 -26 7t-30 20q-16 14 -26 36q-10 24 -10 60v178q0 14 -2 28t-8 24q-6 12 -15 18q-10 6 -25 6h-53v70h78q18 0 38 -8q21 -8 37 -24t27 -40t11 -54v-182q0 -26 8 -46 t20 -32q12 -13 28 -20t30 -7v-70q-14 0 -30 -7q-16 -8 -28 -20t-20 -30t-8 -43v-187q0 -30 -11 -54t-27 -40t-37 -24q-20 -8 -38 -8h-78z"/>
<glyph glyph-name="asciitilde" horiz-adv-x="600" unicode="~" d="M495 333l36 -70q-7 -16 -19 -31t-27 -27q-15 -11 -35 -19t-44 -8q-26 0 -54 9t-57 22q-28 13 -55 25t-47 12q-15 0 -27 -6t-24 -18q-10 -10 -19 -23l-18 -26l-36 70q7 16 19 31t27 27q15 11 35 19t44 8q26 0 54 -9t57 -22q28 -13 55 -25t47 -12q15 0 27 6t24 18 q10 10 19 23z"/>
<glyph glyph-name="currency" d="M118 349q0 -35 12 -65t35 -52q22 -22 51 -36q29 -13 62 -13q34 -1 64 13t50 37q22 23 34 53t12 63t-12 63t-34 53t-50 37q-30 14 -64 13q-32 0 -62 -13q-30 -14 -52 -36t-34 -52t-12 -65zM24 146l56 57q-26 29 -38 67t-12 79t12 80t38 68l-56 54l51 52l55 -55 q28 23 68 36t80 13q42 0 81 -13t69 -36l54 55l50 -52l-54 -54q24 -27 36 -67t12 -81t-12 -79t-36 -67l54 -57l-50 -51l-54 57q-29 -25 -68 -38t-82 -13q-42 1 -80 13t-68 38l-55 -57z" unicode="¤"/>
<glyph glyph-name="brokenbar" horiz-adv-x="222" unicode="¦" d="M67 411v250h88v-250h-88zM67 -89v250h88v-250h-88z"/>
<glyph glyph-name="section" d="M172 324q0 -30 22 -50t52 -34t62 -24t51 -18q14 17 25 34t11 41q1 31 -21 51t-52 34t-62 23q-32 10 -51 21q-37 -28 -37 -78zM89 -99l9 92q36 -19 78 -27t87 -8q21 0 43 6t38 16q18 11 28 28t10 41q0 27 -22 43t-55 28t-72 26q-39 12 -72 32t-55 50t-22 77q0 43 18 73 t55 51q-33 19 -51 49t-18 70q0 42 19 72t49 51q30 19 68 29t74 10t72 -5t72 -14l-9 -91q-27 12 -60 20t-62 8q-19 0 -41 -3t-42 -11t-32 -23q-14 -15 -14 -39q0 -30 22 -48t56 -32q32 -14 72 -26t73 -31t55 -48t23 -75q0 -45 -19 -72t-52 -54q28 -19 46 -49t18 -65 q0 -48 -22 -82t-54 -54q-33 -20 -73 -30t-77 -10q-39 0 -79 5t-82 20z" unicode="§"/>
<glyph glyph-name="dieresis" horiz-adv-x="278" unicode="¨" d="M174 609v100h94v-100h-94zM10 609v100h94v-100h-94z"/>
<glyph glyph-name="copyright" horiz-adv-x="800" unicode="©" d="M127 349q-1 -63 21 -117t59 -92t87 -60t106 -22t106 22t87 60t59 92t21 117q1 63 -21 117t-59 92t-87 60t-106 22t-106 -22t-87 -60t-59 -92t-21 -117zM39 349q1 75 29 141t77 114q49 50 115 78t140 28t140 -28t115 -78q49 -48 77 -114t29 -141q-1 -75 -29 -141t-77 -114 q-49 -50 -115 -78t-140 -28t-140 28t-115 78q-49 48 -77 114t-29 141zM509 285h73q-12 -75 -60 -115t-113 -41q-47 0 -85 17q-38 16 -64 46t-42 70q-14 40 -14 87t14 87t39 69t63 45t86 17q33 0 63 -10q29 -10 53 -29t40 -47t20 -64h-73q-7 37 -35 59t-67 21q-31 0 -55 -11 q-24 -10 -40 -30t-24 -47t-8 -58q0 -33 9 -61t25 -48t41 -32q24 -12 54 -11q41 1 68 23t32 63z"/>
<glyph glyph-name="guillemotleft" d="M396 67l-143 202l143 202h88l-130 -202l130 -202h-88zM194 67l-143 202l143 202h88l-130 -202l130 -202h-88z" unicode="«"/>
<glyph glyph-name="registered" horiz-adv-x="800" unicode="®" d="M369 604v-59h33q18 0 30 5t12 26q0 18 -14 23t-27 5h-34zM331 428v205h76q37 0 56 -14t19 -46q0 -25 -14 -39t-39 -16l55 -90h-39l-53 88h-23v-88h-38zM400 384q28 0 54 11t45 31t31 46t11 58q1 31 -11 58t-31 46t-45 30t-54 11t-54 -11t-44 -30t-30 -46t-12 -58 q0 -32 12 -58t30 -46t44 -31t54 -11zM400 349q-37 0 -70 14q-34 14 -58 39q-24 26 -38 58t-14 70q0 37 14 70q14 34 38 58t58 38q33 14 70 14t70 -14t58 -38t39 -58q14 -33 14 -70q0 -38 -14 -70t-39 -58q-25 -25 -58 -39t-70 -14z"/>
<glyph glyph-name="degree" horiz-adv-x="400" unicode="°" d="M121 567q0 -33 23 -56t56 -23t56 23t23 56t-23 56t-56 23t-56 -23t-23 -56zM57 567q0 30 11 56q10 25 30 45t46 31t56 11t56 -11t46 -31t30 -45q11 -26 11 -56t-11 -56q-10 -25 -30 -45t-46 -31t-56 -11t-56 11t-46 31t-30 45q-11 26 -11 56z"/>
<glyph glyph-name="plusminus" horiz-adv-x="600" unicode="±" d="M47 0v88h506v-88h-506zM47 271v88h209v147h88v-147h209v-88h-209v-147h-88v147h-209z"/>
<glyph glyph-name="acute" horiz-adv-x="278" unicode="´" d="M73 591l89 144h109l-131 -144h-67z"/>
<glyph glyph-name="mu" horiz-adv-x="611" unicode="µ" d="M531 510v-510h-91v81h-2q-21 -45 -67 -69t-100 -24q-29 0 -53 4t-44 16v-218h-94v720h94v-264q0 -90 23 -134t85 -48q40 0 70 16t48 42q19 28 28 66t9 86v236h94z"/>
<glyph glyph-name="mu" horiz-adv-x="611" unicode="μ" d="M531 510v-510h-91v81h-2q-21 -45 -67 -69t-100 -24q-29 0 -53 4t-44 16v-218h-94v720h94v-264q0 -90 23 -134t85 -48q40 0 70 16t48 42q19 28 28 66t9 86v236h94z"/>
<glyph glyph-name="paragraph" horiz-adv-x="600" unicode="¶" d="M236 -112v445q-50 0 -90 13t-68 37t-43 57t-15 72q0 50 17 86t49 58t74 32q43 10 96 10h271v-810h-88v740h-115v-740h-88z"/>
<glyph glyph-name="periodcentered" horiz-adv-x="278" unicode="·" d="M80 304q0 24 18 41t42 17t42 -17t16 -41q2 -24 -16 -42t-42 -18t-42 18t-18 42z"/>
<glyph glyph-name="periodcentered" horiz-adv-x="278" unicode="⋅" d="M80 304q0 24 18 41t42 17t42 -17t16 -41q2 -24 -16 -42t-42 -18t-42 18t-18 42z"/>
<glyph glyph-name="cedilla" horiz-adv-x="278" unicode="¸" d="M200 1h47l-46 -60l2 -2q13 5 30 5q35 0 59 -19t24 -54q0 -25 -12 -43t-31 -28q-19 -11 -43 -16t-45 -5t-43 5t-41 16l18 34q17 -7 31 -11t34 -4q20 -1 38 9t18 37q0 19 -14 29t-32 10q-11 0 -22 -2t-19 -6l-17 19z"/>
<glyph glyph-name="guillemotright" d="M160 471l143 -202l-143 -202h-88l130 202l-130 202h88zM362 471l143 -202l-143 -202h-88l130 202l-130 202h88z" unicode="»"/>
<glyph glyph-name="Aacute" horiz-adv-x="722" unicode="Á" d="M296 741l89 144h109l-131 -144h-67zM498 258l-139 346l-139 -346h278zM12 0l298 698h105l295 -698h-109l-71 176h-342l-71 -176h-105z"/>
<glyph glyph-name="Acircumflex" horiz-adv-x="722" unicode="Â" d="M217 741l99 144h91l100 -144h-80l-66 98l-65 -98h-79zM498 258l-139 346l-139 -346h278zM12 0l298 698h105l295 -698h-109l-71 176h-342l-71 -176h-105z"/>
<glyph glyph-name="Adieresis" horiz-adv-x="722" unicode="Ä" d="M397 759v100h94v-100h-94zM233 759v100h94v-100h-94zM498 258l-139 346l-139 -346h278zM12 0l298 698h105l295 -698h-109l-71 176h-342l-71 -176h-105z"/>
<glyph glyph-name="Ccedilla" horiz-adv-x="611" unicode="Ç" d="M303 -85l57 77q-70 9 -127 38q-57 30 -97 76t-62 108t-21 138q-1 81 27 147t78 113q50 46 116 72q68 26 148 26q41 0 80 -6t77 -24l-8 -97q-66 39 -144 39q-59 0 -109 -20t-86 -58q-36 -36 -54 -86q-19 -50 -19 -109q1 -62 21 -112t56 -86q36 -35 84 -55t102 -20 q19 0 40 2q22 2 42 8q20 4 38 10t32 14l6 -97q-40 -17 -84 -21t-75 -4h-9q-3 0 -8 1l-36 -48l2 -2q13 5 30 5q34 0 58 -19t25 -54q0 -25 -12 -43t-31 -28q-18 -11 -42 -16t-46 -5t-44 5t-40 16l18 34q17 -7 31 -11t34 -4q19 -1 37 9t19 37q0 19 -14 29t-32 10q-11 0 -22 -2 t-19 -6z"/>
<glyph glyph-name="Eacute" d="M243 741l89 144h109l-131 -144h-67zM94 0v698h391v-88h-291v-204h265v-88h-265v-230h291v-88h-391z" unicode="É"/>
<glyph glyph-name="Edieresis" d="M334 759v100h94v-100h-94zM170 759v100h94v-100h-94zM94 0v698h391v-88h-291v-204h265v-88h-265v-230h291v-88h-391z" unicode="Ë"/>
<glyph glyph-name="Iacute" horiz-adv-x="278" unicode="Í" d="M73 741l89 144h109l-131 -144h-67zM89 0v698h100v-698h-100z"/>
<glyph glyph-name="Icircumflex" horiz-adv-x="278" unicode="Î" d="M-6 741l99 144h91l100 -144h-80l-66 98l-65 -98h-79zM89 0v698h100v-698h-100z"/>
<glyph glyph-name="Oacute" horiz-adv-x="778" unicode="Ó" d="M323 741l89 144h109l-131 -144h-67zM53 349q1 78 23 144t66 114q44 47 105 75q62 28 142 28q79 0 141 -28t106 -75q44 -48 66 -114t23 -144q-1 -80 -23 -146t-65 -114q-43 -49 -105 -75t-143 -26t-143 26t-105 75q-43 48 -65 114t-23 146zM159 349q-1 -52 13 -101 q14 -50 42 -88t72 -61t103 -23t103 23t72 61t42 88q14 49 13 101q-1 53 -15 103t-42 87q-28 39 -72 61q-43 22 -101 22t-101 -22q-44 -22 -72 -61q-28 -37 -42 -87t-15 -103z"/>
<glyph glyph-name="Ocircumflex" horiz-adv-x="778" unicode="Ô" d="M244 741l99 144h91l100 -144h-80l-66 98l-65 -98h-79zM53 349q1 78 23 144t66 114q44 47 105 75q62 28 142 28q79 0 141 -28t106 -75q44 -48 66 -114t23 -144q-1 -80 -23 -146t-65 -114q-43 -49 -105 -75t-143 -26t-143 26t-105 75q-43 48 -65 114t-23 146zM159 349 q-1 -52 13 -101q14 -50 42 -88t72 -61t103 -23t103 23t72 61t42 88q14 49 13 101q-1 53 -15 103t-42 87q-28 39 -72 61q-43 22 -101 22t-101 -22q-44 -22 -72 -61q-28 -37 -42 -87t-15 -103z"/>
<glyph glyph-name="Odieresis" horiz-adv-x="778" unicode="Ö" d="M424 759v100h94v-100h-94zM260 759v100h94v-100h-94zM53 349q1 78 23 144t66 114q44 47 105 75q62 28 142 28q79 0 141 -28t106 -75q44 -48 66 -114t23 -144q-1 -80 -23 -146t-65 -114q-43 -49 -105 -75t-143 -26t-143 26t-105 75q-43 48 -65 114t-23 146zM159 349 q-1 -52 13 -101q14 -50 42 -88t72 -61t103 -23t103 23t72 61t42 88q14 49 13 101q-1 53 -15 103t-42 87q-28 39 -72 61q-43 22 -101 22t-101 -22q-44 -22 -72 -61q-28 -37 -42 -87t-15 -103z"/>
<glyph glyph-name="multiply" horiz-adv-x="600" unicode="×" d="M238 253l-170 170l62 62l170 -171l170 171l62 -62l-171 -170l171 -170l-62 -62l-170 171l-170 -171l-62 62z"/>
<glyph glyph-name="Uacute" horiz-adv-x="722" unicode="Ú" d="M307 741l89 144h109l-131 -144h-67zM632 698v-409q0 -149 -70 -225t-201 -76t-201 76t-70 225v409h100v-396q0 -50 8 -92t29 -71q20 -31 53 -47t81 -16t81 16t53 47q21 29 29 71t8 92v396h100z"/>
<glyph glyph-name="Udieresis" horiz-adv-x="722" unicode="Ü" d="M397 759v100h94v-100h-94zM233 759v100h94v-100h-94zM632 698v-409q0 -149 -70 -225t-201 -76t-201 76t-70 225v409h100v-396q0 -50 8 -92t29 -71q20 -31 53 -47t81 -16t81 16t53 47q21 29 29 71t8 92v396h100z"/>
<glyph glyph-name="Yacute" horiz-adv-x="667" unicode="Ý" d="M288 741l89 144h109l-131 -144h-67zM284 0v292l-273 406h117l208 -313l203 313h117l-272 -406v-292h-100z"/>
<glyph glyph-name="germandbls" horiz-adv-x="611" unicode="ß" d="M174 0h-94v474q0 68 13 122t42 90t75 56t115 20q36 0 72 -12q35 -12 65 -36t48 -62q18 -37 18 -86q0 -127 -117 -163v-2q35 -4 63 -21q28 -16 47 -42t29 -57t10 -64q0 -47 -14 -87t-44 -70q-28 -30 -69 -48t-94 -18q-25 0 -48 3t-49 11v79q39 -17 79 -17q27 0 53 10 t45 27q19 19 30 45t11 61q0 43 -14 71t-39 44t-59 23q-34 6 -76 6v76q35 0 64 6q30 6 50 21t31 40t11 63q0 24 -8 46q-8 21 -21 39q-14 18 -35 28t-48 10q-42 0 -70 -18t-43 -46q-17 -28 -23 -64q-6 -35 -6 -69v-489z"/>
<glyph glyph-name="aacute" d="M226 591l89 144h109l-131 -144h-67zM383 198v45q-15 0 -30 1t-30 1q-19 -1 -49 -3t-58 -12t-50 -30q-20 -20 -20 -53q0 -19 9 -35t23 -26t30 -16q17 -6 33 -6q70 0 106 38t36 96zM109 394l-5 80q35 20 77 34t91 14q110 0 158 -53t47 -158v-211q0 -44 1 -66t3 -34h-88v66 h-2q-8 -12 -22 -26q-13 -14 -33 -24q-20 -12 -46 -20t-57 -8q-41 0 -75 9t-60 29q-24 20 -38 49q-14 30 -14 72q0 48 24 80q24 31 58 51q35 20 77 28t78 9h50t50 -2q1 65 -27 99t-99 34q-39 0 -79 -14t-69 -38z" unicode="á"/>
<glyph glyph-name="acircumflex" d="M133 591l99 144h91l100 -144h-80l-66 98l-65 -98h-79zM383 198v45q-15 0 -30 1t-30 1q-19 -1 -49 -3t-58 -12t-50 -30q-20 -20 -20 -53q0 -19 9 -35t23 -26t30 -16q17 -6 33 -6q70 0 106 38t36 96zM109 394l-5 80q35 20 77 34t91 14q110 0 158 -53t47 -158v-211 q0 -44 1 -66t3 -34h-88v66h-2q-8 -12 -22 -26q-13 -14 -33 -24q-20 -12 -46 -20t-57 -8q-41 0 -75 9t-60 29q-24 20 -38 49q-14 30 -14 72q0 48 24 80q24 31 58 51q35 20 77 28t78 9h50t50 -2q1 65 -27 99t-99 34q-39 0 -79 -14t-69 -38z" unicode="â"/>
<glyph glyph-name="adieresis" d="M313 609v100h94v-100h-94zM149 609v100h94v-100h-94zM383 198v45q-15 0 -30 1t-30 1q-19 -1 -49 -3t-58 -12t-50 -30q-20 -20 -20 -53q0 -19 9 -35t23 -26t30 -16q17 -6 33 -6q70 0 106 38t36 96zM109 394l-5 80q35 20 77 34t91 14q110 0 158 -53t47 -158v-211 q0 -44 1 -66t3 -34h-88v66h-2q-8 -12 -22 -26q-13 -14 -33 -24q-20 -12 -46 -20t-57 -8q-41 0 -75 9t-60 29q-24 20 -38 49q-14 30 -14 72q0 48 24 80q24 31 58 51q35 20 77 28t78 9h50t50 -2q1 65 -27 99t-99 34q-39 0 -79 -14t-69 -38z" unicode="ä"/>
<glyph glyph-name="ccedilla" horiz-adv-x="444" unicode="ç" d="M191 -85l58 78q-49 8 -87 32q-38 25 -66 59t-43 78t-15 93q0 58 18 107q18 48 54 84q34 36 82 56t106 20q30 0 62 -6t52 -14l-8 -78q-27 10 -53 16t-49 6q-40 0 -70 -16t-51 -43t-32 -61t-11 -71q0 -34 10 -68q10 -33 30 -61t52 -45t78 -17q24 0 52 8t49 21l7 -84 q-28 -13 -60 -17t-58 -4h-5l-37 -47l2 -2q13 5 30 5q34 0 58 -19t25 -54q0 -25 -12 -43t-31 -28q-18 -11 -42 -16t-46 -5t-44 5t-40 16l18 34q17 -7 31 -11t34 -4q19 -1 37 9t19 37q0 19 -14 29t-32 10q-11 0 -22 -2t-19 -6z"/>
<glyph glyph-name="eacute" d="M232 591l89 144h109l-131 -144h-67zM146 304h264q0 29 -8 55q-8 25 -25 45q-16 20 -40 31t-54 11q-35 0 -59 -13t-42 -33q-16 -20 -24 -46q-8 -25 -12 -50zM471 115v-94q-14 -5 -29 -11q-16 -6 -34 -10t-42 -8t-56 -4q-68 0 -118 20t-82 56t-48 87t-16 113q0 57 17 104 q17 48 49 82t75 53q44 19 98 19q64 0 107 -22t69 -60q25 -38 37 -92q12 -53 12 -114h-364q0 -38 14 -69t36 -53q24 -22 54 -36q30 -12 64 -12q24 0 48 6t46 12q22 8 38 17t25 16z" unicode="é"/>
<glyph glyph-name="edieresis" d="M333 609v100h94v-100h-94zM169 609v100h94v-100h-94zM146 304h264q0 29 -8 55q-8 25 -25 45q-16 20 -40 31t-54 11q-35 0 -59 -13t-42 -33q-16 -20 -24 -46q-8 -25 -12 -50zM471 115v-94q-14 -5 -29 -11q-16 -6 -34 -10t-42 -8t-56 -4q-68 0 -118 20t-82 56t-48 87 t-16 113q0 57 17 104q17 48 49 82t75 53q44 19 98 19q64 0 107 -22t69 -60q25 -38 37 -92q12 -53 12 -114h-364q0 -38 14 -69t36 -53q24 -22 54 -36q30 -12 64 -12q24 0 48 6t46 12q22 8 38 17t25 16z" unicode="ë"/>
<glyph glyph-name="iacute" horiz-adv-x="278" unicode="í" d="M73 591l89 144h109l-131 -144h-67zM92 0v510h94v-510h-94z"/>
<glyph glyph-name="icircumflex" horiz-adv-x="278" unicode="î" d="M-6 591l99 144h91l100 -144h-80l-66 98l-65 -98h-79zM92 0v510h94v-510h-94z"/>
<glyph glyph-name="oacute" horiz-adv-x="611" unicode="ó" d="M240 591l89 144h109l-131 -144h-67zM146 255q0 -34 10 -68q10 -33 28 -61q20 -28 50 -45t72 -17q41 0 71 17q29 17 49 45t30 61q10 34 9 68q0 37 -11 71t-31 61t-50 43t-67 16q-38 0 -68 -16t-50 -43t-31 -61t-11 -71zM46 255q0 58 18 107q18 48 54 84q34 36 82 56 t106 20t106 -20t82 -56t52 -84q18 -49 19 -107q0 -55 -19 -103t-53 -86q-34 -36 -82 -57t-105 -21q-58 0 -106 21t-82 57t-53 86q-19 48 -19 103z"/>
<glyph glyph-name="ocircumflex" horiz-adv-x="611" unicode="ô" d="M161 591l99 144h91l100 -144h-80l-66 98l-65 -98h-79zM146 255q0 -34 10 -68q10 -33 28 -61q20 -28 50 -45t72 -17q41 0 71 17q29 17 49 45t30 61q10 34 9 68q0 37 -11 71t-31 61t-50 43t-67 16q-38 0 -68 -16t-50 -43t-31 -61t-11 -71zM46 255q0 58 18 107q18 48 54 84 q34 36 82 56t106 20t106 -20t82 -56t52 -84q18 -49 19 -107q0 -55 -19 -103t-53 -86q-34 -36 -82 -57t-105 -21q-58 0 -106 21t-82 57t-53 86q-19 48 -19 103z"/>
<glyph glyph-name="odieresis" horiz-adv-x="611" unicode="ö" d="M341 609v100h94v-100h-94zM177 609v100h94v-100h-94zM146 255q0 -34 10 -68q10 -33 28 -61q20 -28 50 -45t72 -17q41 0 71 17q29 17 49 45t30 61q10 34 9 68q0 37 -11 71t-31 61t-50 43t-67 16q-38 0 -68 -16t-50 -43t-31 -61t-11 -71zM46 255q0 58 18 107q18 48 54 84 q34 36 82 56t106 20t106 -20t82 -56t52 -84q18 -49 19 -107q0 -55 -19 -103t-53 -86q-34 -36 -82 -57t-105 -21q-58 0 -106 21t-82 57t-53 86q-19 48 -19 103z"/>
<glyph glyph-name="divide" horiz-adv-x="600" unicode="÷" d="M224 46q0 32 22 54t55 22q30 0 53 -22t23 -54q0 -14 -6 -28q-7 -14 -17 -25t-24 -17t-28 -7q-16 1 -30 7t-26 16q-10 10 -16 25q-6 14 -6 29zM224 460q0 32 22 54t55 23q15 -1 29 -7t24 -16t16 -25q6 -14 7 -29q0 -14 -6 -28q-7 -14 -17 -24t-24 -18q-14 -6 -28 -6 q-16 0 -30 6t-26 16q-10 10 -16 25q-6 14 -6 29zM47 209v88h506v-88h-506z"/>
<glyph glyph-name="uacute" horiz-adv-x="611" unicode="ú" d="M240 591l89 144h109l-131 -144h-67zM531 510v-510h-91v81h-2q-21 -45 -67 -69t-100 -24q-99 0 -145 58t-46 161v303h94v-264q0 -90 23 -134t85 -48q40 0 70 16t48 42q19 28 28 66t9 86v236h94z"/>
<glyph glyph-name="udieresis" horiz-adv-x="611" unicode="ü" d="M341 609v100h94v-100h-94zM177 609v100h94v-100h-94zM531 510v-510h-91v81h-2q-21 -45 -67 -69t-100 -24q-99 0 -145 58t-46 161v303h94v-264q0 -90 23 -134t85 -48q40 0 70 16t48 42q19 28 28 66t9 86v236h94z"/>
<glyph glyph-name="yacute" horiz-adv-x="500" unicode="ý" d="M194 591l89 144h109l-131 -144h-67zM36 -215l6 77q8 -4 20 -6t24 -2q30 0 52 18t36 42q14 22 18 42q6 20 6 24q0 8 -6 24t-12 30l-173 476h103l137 -422h2l140 422h95l-188 -521q-13 -37 -28 -75q-14 -38 -36 -68t-54 -49t-78 -19q-23 0 -37 2t-27 5z"/>
<glyph glyph-name="OE" horiz-adv-x="500" unicode="Œ" d="M209 741l89 144h109l-131 -144h-67zM420 685l-14 -92q-18 7 -34 13t-31 9t-31 5t-35 2q-21 0 -43 -4t-39 -16q-18 -10 -29 -28t-11 -45q0 -33 22 -55q21 -22 55 -40t73 -36t73 -43q34 -26 55 -64q22 -38 22 -95q0 -56 -20 -96t-55 -64q-36 -24 -82 -36t-98 -12 q-36 0 -72 9t-71 20l10 93q13 -5 30 -11t36 -11q19 -4 39 -8t40 -4q22 0 46 6t44 20t34 36t13 52q0 40 -22 64q-21 24 -55 42t-73 36q-39 16 -73 40t-55 59q-22 35 -22 89q-1 46 17 82t48 59q30 25 71 37t88 12q35 0 74 -6t75 -19z"/>
<glyph glyph-name="oe" horiz-adv-x="389" unicode="œ" d="M139 591l89 144h109l-131 -144h-67zM37 16l5 84q14 -9 30 -16q16 -8 32 -12t30 -6t25 -2q16 0 33 4t31 12t23 22t9 35q-1 23 -17 39t-40 30t-54 26q-28 13 -52 31t-42 42q-16 24 -16 60q0 39 14 69t38 50t57 28q33 10 71 10q33 0 61 -6t56 -14l-8 -82q-7 6 -21 10l-28 8 t-28 6t-22 2q-36 0 -63 -15t-27 -47q0 -26 16 -42t42 -30q24 -12 52 -24t54 -30q24 -18 40 -44t17 -67q0 -41 -15 -71t-40 -50t-57 -28q-32 -10 -66 -10q-36 0 -72 6t-68 22z"/>
<glyph glyph-name="Ydieresis" horiz-adv-x="500" unicode="Ÿ" d="M184 591l89 144h109l-131 -144h-67zM43 0v82l294 352h-280v76h389v-82l-294 -352h305v-76h-414z"/>
<glyph glyph-name="circumflex" horiz-adv-x="278" unicode="ˆ" d="M-6 591l99 144h91l100 -144h-80l-66 98l-65 -98h-79z"/>
<glyph glyph-name="tilde" horiz-adv-x="278" unicode="˜" d="M15 596h-46q1 16 7 36t16 36t28 28q17 12 43 12q19 0 40 -8t41 -16t38 -15t35 -7h5q18 0 28 14q10 16 13 32h46q-1 -16 -7 -36t-16 -36t-28 -28t-43 -12q-21 0 -41 8l-40 16t-38 15t-35 7h-5q-18 0 -28 -14q-10 -16 -13 -32z"/>
<glyph glyph-name="Delta" horiz-adv-x="678" unicode="Δ" d="M333 613l-199 -530h406zM382 712l285 -712h-655l275 712h95z"/>
<glyph glyph-name="partialdiff" horiz-adv-x="526" unicode="∂" d="M402 283q-29 35 -63 57t-78 21q-57 -1 -93 -41t-37 -110q0 -40 11 -69t29 -48q19 -19 41 -28t45 -9q36 0 63 19t45 51q17 32 27 72q10 41 10 85zM123 603l-47 56q10 9 25 19t35 20t44 16q25 6 56 7q74 1 126 -35t84 -91q26 -47 37 -109t11 -125q0 -17 -1 -51t-8 -76 t-21 -84q-14 -44 -41 -80t-68 -59t-101 -23q-50 0 -89 18t-65 50t-41 73q-14 41 -14 85q1 52 17 92t44 68t66 42q37 14 78 14q32 0 74 -14t81 -55q1 15 1 28q0 67 -12 113q-14 56 -39 88q-24 32 -55 46t-61 14q-41 0 -70 -17t-46 -30z"/>
<glyph glyph-name="summation" horiz-adv-x="626" unicode="∑" d="M589 786v-82h-432l291 -413l-310 -423h463v-82h-576v73l316 431l-302 424v72h550z"/>
<glyph glyph-name="minus" horiz-adv-x="600" unicode="−" d="M47 209v88h506v-88h-506z"/>
<glyph glyph-name="radical" horiz-adv-x="515" unicode="√" d="M526 786l-211 -1000h-86l-158 328l-48 -23l-33 70l124 58l144 -303l178 870h90z"/>
<glyph glyph-name="notequal" horiz-adv-x="600" unicode="≠" d="M221 192l64 123h-238v83h281l77 150l73 -38l-58 -112h133v-83h-176l-64 -123h240v-84h-283l-77 -148l-73 37l58 111h-131v84h174z"/>
<glyph glyph-name="lessequal" horiz-adv-x="600" unicode="≤" d="M47 52h506v-84h-506v84zM47 269v86l506 183v-89l-391 -137l391 -134v-89z"/>
<glyph glyph-name="greaterequal" horiz-adv-x="600" unicode="≥" d="M553 52v-84h-506v84h506zM553 269l-506 -180v89l392 134l-392 137v89l506 -183v-86z"/>
<glyph glyph-name="lozenge" horiz-adv-x="593" unicode="◊" d="M424 356l-128 305l-127 -305l127 -306zM336 747l174 -391l-174 -391h-81l-173 391l173 391h81z"/>
</font>
</defs>
</svg>
